solid Part3_Default_sldprt
   facet normal 0.000000e+00 -1.000000e+00 0.000000e+00
      outer loop
         vertex 4.000000e+01 9.680045e-312 0.000000e+00
         vertex 1.000000e+01 9.680045e-312 1.000000e+01
         vertex 1.000000e+01 9.680045e-312 0.000000e+00
      endloop
   endfacet
   facet normal 0.000000e+00 0.000000e+00 -1.000000e+00
      outer loop
         vertex 1.000000e+01 5.000000e+01 0.000000e+00
         vertex 4.000000e+01 9.680045e-312 0.000000e+00
         vertex 1.000000e+01 9.680045e-312 0.000000e+00
      endloop
   endfacet
   facet normal 0.000000e+00 0.000000e+00 -1.000000e+00
      outer loop
         vertex 1.909830e+00 4.122147e+00 0.000000e+00
         vertex 1.089935e+00 5.460095e+00 0.000000e+00
         vertex 1.000000e+01 9.680045e-312 0.000000e+00
      endloop
   endfacet
   facet normal 0.000000e+00 0.000000e+00 -1.000000e+00
      outer loop
         vertex 0.000000e+00 1.000000e+01 0.000000e+00
         vertex 1.000000e+01 5.000000e+01 0.000000e+00
         vertex 1.000000e+01 9.680045e-312 0.000000e+00
      endloop
   endfacet
   facet normal 0.000000e+00 0.000000e+00 -1.000000e+00
      outer loop
         vertex 1.089935e+00 5.460095e+00 0.000000e+00
         vertex 4.894348e-01 6.909830e+00 0.000000e+00
         vertex 1.000000e+01 9.680045e-312 0.000000e+00
      endloop
   endfacet
   facet normal 0.000000e+00 0.000000e+00 -1.000000e+00
      outer loop
         vertex 4.894348e-01 6.909830e+00 0.000000e+00
         vertex 1.231166e-01 8.435655e+00 0.000000e+00
         vertex 1.000000e+01 9.680045e-312 0.000000e+00
      endloop
   endfacet
   facet normal 0.000000e+00 0.000000e+00 -1.000000e+00
      outer loop
         vertex 1.231166e-01 8.435655e+00 0.000000e+00
         vertex 0.000000e+00 1.000000e+01 0.000000e+00
         vertex 1.000000e+01 9.680045e-312 0.000000e+00
      endloop
   endfacet
   facet normal 0.000000e+00 0.000000e+00 -1.000000e+00
      outer loop
         vertex 8.435655e+00 1.231166e-01 0.000000e+00
         vertex 4.122147e+00 1.909830e+00 0.000000e+00
         vertex 1.000000e+01 9.680045e-312 0.000000e+00
      endloop
   endfacet
   facet normal 0.000000e+00 0.000000e+00 -1.000000e+00
      outer loop
         vertex 4.122147e+00 1.909830e+00 0.000000e+00
         vertex 2.928932e+00 2.928932e+00 0.000000e+00
         vertex 1.000000e+01 9.680045e-312 0.000000e+00
      endloop
   endfacet
   facet normal 0.000000e+00 0.000000e+00 -1.000000e+00
      outer loop
         vertex 2.928932e+00 2.928932e+00 0.000000e+00
         vertex 1.909830e+00 4.122147e+00 0.000000e+00
         vertex 1.000000e+01 9.680045e-312 0.000000e+00
      endloop
   endfacet
   facet normal -7.845911e-02 -9.969173e-01 -0.000000e+00
      outer loop
         vertex 8.435655e+00 1.231166e-01 1.000000e+01
         vertex 8.435655e+00 1.231166e-01 0.000000e+00
         vertex 1.000000e+01 9.680045e-312 0.000000e+00
      endloop
   endfacet
   facet normal -7.845911e-02 -9.969173e-01 -0.000000e+00
      outer loop
         vertex 1.000000e+01 9.680045e-312 1.000000e+01
         vertex 8.435655e+00 1.231166e-01 1.000000e+01
         vertex 1.000000e+01 9.680045e-312 0.000000e+00
      endloop
   endfacet
   facet normal -0.000000e+00 -1.000000e+00 -0.000000e+00
      outer loop
         vertex 4.000000e+01 9.680045e-312 1.000000e+01
         vertex 1.000000e+01 9.680045e-312 1.000000e+01
         vertex 4.000000e+01 9.680045e-312 0.000000e+00
      endloop
   endfacet
   facet normal 0.000000e+00 0.000000e+00 -1.000000e+00
      outer loop
         vertex 4.951056e+01 6.909830e+00 0.000000e+00
         vertex 4.156435e+01 1.231166e-01 0.000000e+00
         vertex 4.000000e+01 9.680045e-312 0.000000e+00
      endloop
   endfacet
   facet normal 0.000000e+00 0.000000e+00 -1.000000e+00
      outer loop
         vertex 1.000000e+01 5.000000e+01 0.000000e+00
         vertex 4.000000e+01 5.000000e+01 0.000000e+00
         vertex 4.000000e+01 9.680045e-312 0.000000e+00
      endloop
   endfacet
   facet normal 0.000000e+00 0.000000e+00 -1.000000e+00
      outer loop
         vertex 4.987688e+01 8.435655e+00 0.000000e+00
         vertex 4.951056e+01 6.909830e+00 0.000000e+00
         vertex 4.000000e+01 9.680045e-312 0.000000e+00
      endloop
   endfacet
   facet normal 0.000000e+00 0.000000e+00 -1.000000e+00
      outer loop
         vertex 4.000000e+01 5.000000e+01 0.000000e+00
         vertex 5.000000e+01 4.000000e+01 0.000000e+00
         vertex 4.000000e+01 9.680045e-312 0.000000e+00
      endloop
   endfacet
   facet normal 0.000000e+00 -0.000000e+00 -1.000000e+00
      outer loop
         vertex 5.000000e+01 4.000000e+01 0.000000e+00
         vertex 5.000000e+01 1.000000e+01 0.000000e+00
         vertex 4.000000e+01 9.680045e-312 0.000000e+00
      endloop
   endfacet
   facet normal 0.000000e+00 0.000000e+00 -1.000000e+00
      outer loop
         vertex 5.000000e+01 1.000000e+01 0.000000e+00
         vertex 4.987688e+01 8.435655e+00 0.000000e+00
         vertex 4.000000e+01 9.680045e-312 0.000000e+00
      endloop
   endfacet
   facet normal 7.845902e-02 -9.969173e-01 0.000000e+00
      outer loop
         vertex 4.156435e+01 1.231166e-01 0.000000e+00
         vertex 4.000000e+01 9.680045e-312 1.000000e+01
         vertex 4.000000e+01 9.680045e-312 0.000000e+00
      endloop
   endfacet
   facet normal 0.000000e+00 0.000000e+00 1.000000e+00
      outer loop
         vertex 4.000000e+01 9.680045e-312 1.000000e+01
         vertex 2.543412e+01 2.253798e+01 1.000000e+01
         vertex 1.000000e+01 9.680045e-312 1.000000e+01
      endloop
   endfacet
   facet normal 0.000000e+00 0.000000e+00 1.000000e+00
      outer loop
         vertex 2.543412e+01 2.253798e+01 1.000000e+01
         vertex 2.500000e+01 2.250000e+01 1.000000e+01
         vertex 1.000000e+01 9.680045e-312 1.000000e+01
      endloop
   endfacet
   facet normal 0.000000e+00 0.000000e+00 1.000000e+00
      outer loop
         vertex 2.500000e+01 2.250000e+01 1.000000e+01
         vertex 2.456588e+01 2.253798e+01 1.000000e+01
         vertex 1.000000e+01 9.680045e-312 1.000000e+01
      endloop
   endfacet
   facet normal 0.000000e+00 0.000000e+00 1.000000e+00
      outer loop
         vertex 2.456588e+01 2.253798e+01 1.000000e+01
         vertex 2.414495e+01 2.265077e+01 1.000000e+01
         vertex 1.000000e+01 9.680045e-312 1.000000e+01
      endloop
   endfacet
   facet normal 0.000000e+00 0.000000e+00 1.000000e+00
      outer loop
         vertex 2.414495e+01 2.265077e+01 1.000000e+01
         vertex 2.375000e+01 2.283494e+01 1.000000e+01
         vertex 1.000000e+01 9.680045e-312 1.000000e+01
      endloop
   endfacet
   facet normal 0.000000e+00 0.000000e+00 1.000000e+00
      outer loop
         vertex 2.375000e+01 2.283494e+01 1.000000e+01
         vertex 8.435655e+00 1.231166e-01 1.000000e+01
         vertex 1.000000e+01 9.680045e-312 1.000000e+01
      endloop
   endfacet
   facet normal 0.000000e+00 0.000000e+00 1.000000e+00
      outer loop
         vertex 2.625000e+01 2.283494e+01 1.000000e+01
         vertex 2.585505e+01 2.265077e+01 1.000000e+01
         vertex 4.000000e+01 9.680045e-312 1.000000e+01
      endloop
   endfacet
   facet normal 0.000000e+00 0.000000e+00 1.000000e+00
      outer loop
         vertex 2.585505e+01 2.265077e+01 1.000000e+01
         vertex 2.543412e+01 2.253798e+01 1.000000e+01
         vertex 4.000000e+01 9.680045e-312 1.000000e+01
      endloop
   endfacet
   facet normal 0.000000e+00 0.000000e+00 1.000000e+00
      outer loop
         vertex 2.660697e+01 2.308489e+01 1.000000e+01
         vertex 2.625000e+01 2.283494e+01 1.000000e+01
         vertex 4.000000e+01 9.680045e-312 1.000000e+01
      endloop
   endfacet
   facet normal 0.000000e+00 0.000000e+00 1.000000e+00
      outer loop
         vertex 4.156435e+01 1.231166e-01 1.000000e+01
         vertex 2.660697e+01 2.308489e+01 1.000000e+01
         vertex 4.000000e+01 9.680045e-312 1.000000e+01
      endloop
   endfacet
   facet normal 7.845902e-02 -9.969173e-01 0.000000e+00
      outer loop
         vertex 4.156435e+01 1.231166e-01 0.000000e+00
         vertex 4.156435e+01 1.231166e-01 1.000000e+01
         vertex 4.000000e+01 9.680045e-312 1.000000e+01
      endloop
   endfacet
   facet normal 0.000000e+00 0.000000e+00 -1.000000e+00
      outer loop
         vertex 6.909830e+00 4.894348e-01 0.000000e+00
         vertex 4.122147e+00 1.909830e+00 0.000000e+00
         vertex 8.435655e+00 1.231166e-01 0.000000e+00
      endloop
   endfacet
   facet normal -2.334453e-01 -9.723699e-01 -0.000000e+00
      outer loop
         vertex 6.909830e+00 4.894348e-01 1.000000e+01
         vertex 6.909830e+00 4.894348e-01 0.000000e+00
         vertex 8.435655e+00 1.231166e-01 0.000000e+00
      endloop
   endfacet
   facet normal -2.334453e-01 -9.723699e-01 -0.000000e+00
      outer loop
         vertex 8.435655e+00 1.231166e-01 1.000000e+01
         vertex 6.909830e+00 4.894348e-01 1.000000e+01
         vertex 8.435655e+00 1.231166e-01 0.000000e+00
      endloop
   endfacet
   facet normal 0.000000e+00 0.000000e+00 -1.000000e+00
      outer loop
         vertex 4.951056e+01 6.909830e+00 0.000000e+00
         vertex 4.309017e+01 4.894348e-01 0.000000e+00
         vertex 4.156435e+01 1.231166e-01 0.000000e+00
      endloop
   endfacet
   facet normal 2.334457e-01 -9.723698e-01 0.000000e+00
      outer loop
         vertex 4.309017e+01 4.894348e-01 0.000000e+00
         vertex 4.156435e+01 1.231166e-01 1.000000e+01
         vertex 4.156435e+01 1.231166e-01 0.000000e+00
      endloop
   endfacet
   facet normal 0.000000e+00 0.000000e+00 1.000000e+00
      outer loop
         vertex 2.375000e+01 2.283494e+01 1.000000e+01
         vertex 2.339303e+01 2.308489e+01 1.000000e+01
         vertex 8.435655e+00 1.231166e-01 1.000000e+01
      endloop
   endfacet
   facet normal 0.000000e+00 0.000000e+00 1.000000e+00
      outer loop
         vertex 2.339303e+01 2.308489e+01 1.000000e+01
         vertex 6.909830e+00 4.894348e-01 1.000000e+01
         vertex 8.435655e+00 1.231166e-01 1.000000e+01
      endloop
   endfacet
   facet normal 0.000000e+00 0.000000e+00 1.000000e+00
      outer loop
         vertex 4.309017e+01 4.894348e-01 1.000000e+01
         vertex 2.660697e+01 2.308489e+01 1.000000e+01
         vertex 4.156435e+01 1.231166e-01 1.000000e+01
      endloop
   endfacet
   facet normal 2.334457e-01 -9.723698e-01 0.000000e+00
      outer loop
         vertex 4.309017e+01 4.894348e-01 0.000000e+00
         vertex 4.309017e+01 4.894348e-01 1.000000e+01
         vertex 4.156435e+01 1.231166e-01 1.000000e+01
      endloop
   endfacet
   facet normal 0.000000e+00 0.000000e+00 -1.000000e+00
      outer loop
         vertex 5.460095e+00 1.089935e+00 0.000000e+00
         vertex 4.122147e+00 1.909830e+00 0.000000e+00
         vertex 6.909830e+00 4.894348e-01 0.000000e+00
      endloop
   endfacet
   facet normal -3.826835e-01 -9.238795e-01 -0.000000e+00
      outer loop
         vertex 5.460095e+00 1.089935e+00 1.000000e+01
         vertex 5.460095e+00 1.089935e+00 0.000000e+00
         vertex 6.909830e+00 4.894348e-01 0.000000e+00
      endloop
   endfacet
   facet normal -3.826835e-01 -9.238795e-01 -0.000000e+00
      outer loop
         vertex 6.909830e+00 4.894348e-01 1.000000e+01
         vertex 5.460095e+00 1.089935e+00 1.000000e+01
         vertex 6.909830e+00 4.894348e-01 0.000000e+00
      endloop
   endfacet
   facet normal 0.000000e+00 0.000000e+00 -1.000000e+00
      outer loop
         vertex 4.951056e+01 6.909830e+00 0.000000e+00
         vertex 4.453991e+01 1.089935e+00 0.000000e+00
         vertex 4.309017e+01 4.894348e-01 0.000000e+00
      endloop
   endfacet
   facet normal 3.826828e-01 -9.238798e-01 0.000000e+00
      outer loop
         vertex 4.453991e+01 1.089935e+00 0.000000e+00
         vertex 4.309017e+01 4.894348e-01 1.000000e+01
         vertex 4.309017e+01 4.894348e-01 0.000000e+00
      endloop
   endfacet
   facet normal 0.000000e+00 0.000000e+00 1.000000e+00
      outer loop
         vertex 2.339303e+01 2.308489e+01 1.000000e+01
         vertex 5.460095e+00 1.089935e+00 1.000000e+01
         vertex 6.909830e+00 4.894348e-01 1.000000e+01
      endloop
   endfacet
   facet normal 0.000000e+00 0.000000e+00 1.000000e+00
      outer loop
         vertex 4.453991e+01 1.089935e+00 1.000000e+01
         vertex 2.660697e+01 2.308489e+01 1.000000e+01
         vertex 4.309017e+01 4.894348e-01 1.000000e+01
      endloop
   endfacet
   facet normal 3.826828e-01 -9.238798e-01 0.000000e+00
      outer loop
         vertex 4.453991e+01 1.089935e+00 0.000000e+00
         vertex 4.453991e+01 1.089935e+00 1.000000e+01
         vertex 4.309017e+01 4.894348e-01 1.000000e+01
      endloop
   endfacet
   facet normal -5.224985e-01 -8.526402e-01 -0.000000e+00
      outer loop
         vertex 4.122147e+00 1.909830e+00 1.000000e+01
         vertex 4.122147e+00 1.909830e+00 0.000000e+00
         vertex 5.460095e+00 1.089935e+00 0.000000e+00
      endloop
   endfacet
   facet normal -5.224985e-01 -8.526402e-01 -0.000000e+00
      outer loop
         vertex 5.460095e+00 1.089935e+00 1.000000e+01
         vertex 4.122147e+00 1.909830e+00 1.000000e+01
         vertex 5.460095e+00 1.089935e+00 0.000000e+00
      endloop
   endfacet
   facet normal 0.000000e+00 0.000000e+00 -1.000000e+00
      outer loop
         vertex 4.891007e+01 5.460095e+00 0.000000e+00
         vertex 4.809017e+01 4.122147e+00 0.000000e+00
         vertex 4.453991e+01 1.089935e+00 0.000000e+00
      endloop
   endfacet
   facet normal 0.000000e+00 0.000000e+00 -1.000000e+00
      outer loop
         vertex 4.809017e+01 4.122147e+00 0.000000e+00
         vertex 4.707107e+01 2.928932e+00 0.000000e+00
         vertex 4.453991e+01 1.089935e+00 0.000000e+00
      endloop
   endfacet
   facet normal 0.000000e+00 0.000000e+00 -1.000000e+00
      outer loop
         vertex 4.707107e+01 2.928932e+00 0.000000e+00
         vertex 4.587785e+01 1.909830e+00 0.000000e+00
         vertex 4.453991e+01 1.089935e+00 0.000000e+00
      endloop
   endfacet
   facet normal 0.000000e+00 0.000000e+00 -1.000000e+00
      outer loop
         vertex 4.951056e+01 6.909830e+00 0.000000e+00
         vertex 4.891007e+01 5.460095e+00 0.000000e+00
         vertex 4.453991e+01 1.089935e+00 0.000000e+00
      endloop
   endfacet
   facet normal 5.224992e-01 -8.526398e-01 0.000000e+00
      outer loop
         vertex 4.587785e+01 1.909830e+00 0.000000e+00
         vertex 4.453991e+01 1.089935e+00 1.000000e+01
         vertex 4.453991e+01 1.089935e+00 0.000000e+00
      endloop
   endfacet
   facet normal 0.000000e+00 0.000000e+00 1.000000e+00
      outer loop
         vertex 2.339303e+01 2.308489e+01 1.000000e+01
         vertex 4.122147e+00 1.909830e+00 1.000000e+01
         vertex 5.460095e+00 1.089935e+00 1.000000e+01
      endloop
   endfacet
   facet normal 0.000000e+00 0.000000e+00 1.000000e+00
      outer loop
         vertex 4.587785e+01 1.909830e+00 1.000000e+01
         vertex 2.660697e+01 2.308489e+01 1.000000e+01
         vertex 4.453991e+01 1.089935e+00 1.000000e+01
      endloop
   endfacet
   facet normal 5.224992e-01 -8.526398e-01 0.000000e+00
      outer loop
         vertex 4.587785e+01 1.909830e+00 0.000000e+00
         vertex 4.587785e+01 1.909830e+00 1.000000e+01
         vertex 4.453991e+01 1.089935e+00 1.000000e+01
      endloop
   endfacet
   facet normal -6.494481e-01 -7.604059e-01 -0.000000e+00
      outer loop
         vertex 2.928932e+00 2.928932e+00 1.000000e+01
         vertex 2.928932e+00 2.928932e+00 0.000000e+00
         vertex 4.122147e+00 1.909830e+00 0.000000e+00
      endloop
   endfacet
   facet normal -6.494481e-01 -7.604059e-01 -0.000000e+00
      outer loop
         vertex 4.122147e+00 1.909830e+00 1.000000e+01
         vertex 2.928932e+00 2.928932e+00 1.000000e+01
         vertex 4.122147e+00 1.909830e+00 0.000000e+00
      endloop
   endfacet
   facet normal 6.494472e-01 -7.604067e-01 0.000000e+00
      outer loop
         vertex 4.707107e+01 2.928932e+00 0.000000e+00
         vertex 4.587785e+01 1.909830e+00 1.000000e+01
         vertex 4.587785e+01 1.909830e+00 0.000000e+00
      endloop
   endfacet
   facet normal 0.000000e+00 0.000000e+00 1.000000e+00
      outer loop
         vertex 2.339303e+01 2.308489e+01 1.000000e+01
         vertex 2.308489e+01 2.339303e+01 1.000000e+01
         vertex 4.122147e+00 1.909830e+00 1.000000e+01
      endloop
   endfacet
   facet normal 0.000000e+00 0.000000e+00 1.000000e+00
      outer loop
         vertex 2.308489e+01 2.339303e+01 1.000000e+01
         vertex 2.928932e+00 2.928932e+00 1.000000e+01
         vertex 4.122147e+00 1.909830e+00 1.000000e+01
      endloop
   endfacet
   facet normal 0.000000e+00 0.000000e+00 1.000000e+00
      outer loop
         vertex 4.707107e+01 2.928932e+00 1.000000e+01
         vertex 2.660697e+01 2.308489e+01 1.000000e+01
         vertex 4.587785e+01 1.909830e+00 1.000000e+01
      endloop
   endfacet
   facet normal 6.494472e-01 -7.604067e-01 0.000000e+00
      outer loop
         vertex 4.707107e+01 2.928932e+00 0.000000e+00
         vertex 4.707107e+01 2.928932e+00 1.000000e+01
         vertex 4.587785e+01 1.909830e+00 1.000000e+01
      endloop
   endfacet
   facet normal -7.604059e-01 -6.494481e-01 -0.000000e+00
      outer loop
         vertex 1.909830e+00 4.122147e+00 1.000000e+01
         vertex 1.909830e+00 4.122147e+00 0.000000e+00
         vertex 2.928932e+00 2.928932e+00 0.000000e+00
      endloop
   endfacet
   facet normal -7.604059e-01 -6.494481e-01 -0.000000e+00
      outer loop
         vertex 2.928932e+00 2.928932e+00 1.000000e+01
         vertex 1.909830e+00 4.122147e+00 1.000000e+01
         vertex 2.928932e+00 2.928932e+00 0.000000e+00
      endloop
   endfacet
   facet normal 7.604061e-01 -6.494479e-01 0.000000e+00
      outer loop
         vertex 4.809017e+01 4.122147e+00 0.000000e+00
         vertex 4.707107e+01 2.928932e+00 1.000000e+01
         vertex 4.707107e+01 2.928932e+00 0.000000e+00
      endloop
   endfacet
   facet normal 0.000000e+00 0.000000e+00 1.000000e+00
      outer loop
         vertex 2.308489e+01 2.339303e+01 1.000000e+01
         vertex 1.909830e+00 4.122147e+00 1.000000e+01
         vertex 2.928932e+00 2.928932e+00 1.000000e+01
      endloop
   endfacet
   facet normal 0.000000e+00 0.000000e+00 1.000000e+00
      outer loop
         vertex 4.809017e+01 4.122147e+00 1.000000e+01
         vertex 2.660697e+01 2.308489e+01 1.000000e+01
         vertex 4.707107e+01 2.928932e+00 1.000000e+01
      endloop
   endfacet
   facet normal 7.604061e-01 -6.494479e-01 0.000000e+00
      outer loop
         vertex 4.809017e+01 4.122147e+00 0.000000e+00
         vertex 4.809017e+01 4.122147e+00 1.000000e+01
         vertex 4.707107e+01 2.928932e+00 1.000000e+01
      endloop
   endfacet
   facet normal -8.526402e-01 -5.224985e-01 -0.000000e+00
      outer loop
         vertex 1.089935e+00 5.460095e+00 1.000000e+01
         vertex 1.089935e+00 5.460095e+00 0.000000e+00
         vertex 1.909830e+00 4.122147e+00 0.000000e+00
      endloop
   endfacet
   facet normal -8.526402e-01 -5.224985e-01 -0.000000e+00
      outer loop
         vertex 1.909830e+00 4.122147e+00 1.000000e+01
         vertex 1.089935e+00 5.460095e+00 1.000000e+01
         vertex 1.909830e+00 4.122147e+00 0.000000e+00
      endloop
   endfacet
   facet normal 8.526402e-01 -5.224985e-01 0.000000e+00
      outer loop
         vertex 4.891007e+01 5.460095e+00 0.000000e+00
         vertex 4.809017e+01 4.122147e+00 1.000000e+01
         vertex 4.809017e+01 4.122147e+00 0.000000e+00
      endloop
   endfacet
   facet normal 0.000000e+00 0.000000e+00 1.000000e+00
      outer loop
         vertex 2.308489e+01 2.339303e+01 1.000000e+01
         vertex 1.089935e+00 5.460095e+00 1.000000e+01
         vertex 1.909830e+00 4.122147e+00 1.000000e+01
      endloop
   endfacet
   facet normal 0.000000e+00 0.000000e+00 1.000000e+00
      outer loop
         vertex 2.691511e+01 2.339303e+01 1.000000e+01
         vertex 2.660697e+01 2.308489e+01 1.000000e+01
         vertex 4.809017e+01 4.122147e+00 1.000000e+01
      endloop
   endfacet
   facet normal 0.000000e+00 0.000000e+00 1.000000e+00
      outer loop
         vertex 4.891007e+01 5.460095e+00 1.000000e+01
         vertex 2.691511e+01 2.339303e+01 1.000000e+01
         vertex 4.809017e+01 4.122147e+00 1.000000e+01
      endloop
   endfacet
   facet normal 8.526402e-01 -5.224985e-01 0.000000e+00
      outer loop
         vertex 4.891007e+01 5.460095e+00 0.000000e+00
         vertex 4.891007e+01 5.460095e+00 1.000000e+01
         vertex 4.809017e+01 4.122147e+00 1.000000e+01
      endloop
   endfacet
   facet normal -9.238795e-01 -3.826835e-01 -0.000000e+00
      outer loop
         vertex 4.894348e-01 6.909830e+00 1.000000e+01
         vertex 4.894348e-01 6.909830e+00 0.000000e+00
         vertex 1.089935e+00 5.460095e+00 0.000000e+00
      endloop
   endfacet
   facet normal -9.238795e-01 -3.826835e-01 -0.000000e+00
      outer loop
         vertex 1.089935e+00 5.460095e+00 1.000000e+01
         vertex 4.894348e-01 6.909830e+00 1.000000e+01
         vertex 1.089935e+00 5.460095e+00 0.000000e+00
      endloop
   endfacet
   facet normal 9.238799e-01 -3.826825e-01 0.000000e+00
      outer loop
         vertex 4.951056e+01 6.909830e+00 0.000000e+00
         vertex 4.891007e+01 5.460095e+00 1.000000e+01
         vertex 4.891007e+01 5.460095e+00 0.000000e+00
      endloop
   endfacet
   facet normal 0.000000e+00 0.000000e+00 1.000000e+00
      outer loop
         vertex 2.308489e+01 2.339303e+01 1.000000e+01
         vertex 4.894348e-01 6.909830e+00 1.000000e+01
         vertex 1.089935e+00 5.460095e+00 1.000000e+01
      endloop
   endfacet
   facet normal 0.000000e+00 0.000000e+00 1.000000e+00
      outer loop
         vertex 4.951056e+01 6.909830e+00 1.000000e+01
         vertex 2.691511e+01 2.339303e+01 1.000000e+01
         vertex 4.891007e+01 5.460095e+00 1.000000e+01
      endloop
   endfacet
   facet normal 9.238799e-01 -3.826825e-01 0.000000e+00
      outer loop
         vertex 4.951056e+01 6.909830e+00 0.000000e+00
         vertex 4.951056e+01 6.909830e+00 1.000000e+01
         vertex 4.891007e+01 5.460095e+00 1.000000e+01
      endloop
   endfacet
   facet normal -9.723699e-01 -2.334453e-01 -0.000000e+00
      outer loop
         vertex 1.231166e-01 8.435655e+00 1.000000e+01
         vertex 1.231166e-01 8.435655e+00 0.000000e+00
         vertex 4.894348e-01 6.909830e+00 0.000000e+00
      endloop
   endfacet
   facet normal -9.723699e-01 -2.334453e-01 -0.000000e+00
      outer loop
         vertex 4.894348e-01 6.909830e+00 1.000000e+01
         vertex 1.231166e-01 8.435655e+00 1.000000e+01
         vertex 4.894348e-01 6.909830e+00 0.000000e+00
      endloop
   endfacet
   facet normal 9.723698e-01 -2.334458e-01 0.000000e+00
      outer loop
         vertex 4.987688e+01 8.435655e+00 0.000000e+00
         vertex 4.951056e+01 6.909830e+00 1.000000e+01
         vertex 4.951056e+01 6.909830e+00 0.000000e+00
      endloop
   endfacet
   facet normal 0.000000e+00 0.000000e+00 1.000000e+00
      outer loop
         vertex 2.308489e+01 2.339303e+01 1.000000e+01
         vertex 1.231166e-01 8.435655e+00 1.000000e+01
         vertex 4.894348e-01 6.909830e+00 1.000000e+01
      endloop
   endfacet
   facet normal 0.000000e+00 0.000000e+00 1.000000e+00
      outer loop
         vertex 4.987688e+01 8.435655e+00 1.000000e+01
         vertex 2.691511e+01 2.339303e+01 1.000000e+01
         vertex 4.951056e+01 6.909830e+00 1.000000e+01
      endloop
   endfacet
   facet normal 9.723698e-01 -2.334458e-01 0.000000e+00
      outer loop
         vertex 4.987688e+01 8.435655e+00 0.000000e+00
         vertex 4.987688e+01 8.435655e+00 1.000000e+01
         vertex 4.951056e+01 6.909830e+00 1.000000e+01
      endloop
   endfacet
   facet normal -9.969173e-01 -7.845911e-02 -0.000000e+00
      outer loop
         vertex 0.000000e+00 1.000000e+01 1.000000e+01
         vertex 0.000000e+00 1.000000e+01 0.000000e+00
         vertex 1.231166e-01 8.435655e+00 0.000000e+00
      endloop
   endfacet
   facet normal -9.969173e-01 -7.845911e-02 -0.000000e+00
      outer loop
         vertex 1.231166e-01 8.435655e+00 1.000000e+01
         vertex 0.000000e+00 1.000000e+01 1.000000e+01
         vertex 1.231166e-01 8.435655e+00 0.000000e+00
      endloop
   endfacet
   facet normal 9.969173e-01 -7.845944e-02 0.000000e+00
      outer loop
         vertex 5.000000e+01 1.000000e+01 0.000000e+00
         vertex 4.987688e+01 8.435655e+00 1.000000e+01
         vertex 4.987688e+01 8.435655e+00 0.000000e+00
      endloop
   endfacet
   facet normal 0.000000e+00 0.000000e+00 1.000000e+00
      outer loop
         vertex 2.308489e+01 2.339303e+01 1.000000e+01
         vertex 0.000000e+00 1.000000e+01 1.000000e+01
         vertex 1.231166e-01 8.435655e+00 1.000000e+01
      endloop
   endfacet
   facet normal 0.000000e+00 0.000000e+00 1.000000e+00
      outer loop
         vertex 5.000000e+01 1.000000e+01 1.000000e+01
         vertex 2.716506e+01 2.375000e+01 1.000000e+01
         vertex 4.987688e+01 8.435655e+00 1.000000e+01
      endloop
   endfacet
   facet normal 0.000000e+00 0.000000e+00 1.000000e+00
      outer loop
         vertex 2.716506e+01 2.375000e+01 1.000000e+01
         vertex 2.691511e+01 2.339303e+01 1.000000e+01
         vertex 4.987688e+01 8.435655e+00 1.000000e+01
      endloop
   endfacet
   facet normal 9.969173e-01 -7.845944e-02 0.000000e+00
      outer loop
         vertex 5.000000e+01 1.000000e+01 0.000000e+00
         vertex 5.000000e+01 1.000000e+01 1.000000e+01
         vertex 4.987688e+01 8.435655e+00 1.000000e+01
      endloop
   endfacet
   facet normal -1.000000e+00 0.000000e+00 0.000000e+00
      outer loop
         vertex 0.000000e+00 1.000000e+01 1.000000e+01
         vertex 0.000000e+00 4.000000e+01 1.000000e+01
         vertex 0.000000e+00 1.000000e+01 0.000000e+00
      endloop
   endfacet
   facet normal -1.000000e+00 0.000000e+00 -0.000000e+00
      outer loop
         vertex 0.000000e+00 4.000000e+01 1.000000e+01
         vertex 0.000000e+00 4.000000e+01 0.000000e+00
         vertex 0.000000e+00 1.000000e+01 0.000000e+00
      endloop
   endfacet
   facet normal 0.000000e+00 0.000000e+00 -1.000000e+00
      outer loop
         vertex 0.000000e+00 4.000000e+01 0.000000e+00
         vertex 1.000000e+01 5.000000e+01 0.000000e+00
         vertex 0.000000e+00 1.000000e+01 0.000000e+00
      endloop
   endfacet
   facet normal 1.000000e+00 0.000000e+00 0.000000e+00
      outer loop
         vertex 5.000000e+01 4.000000e+01 0.000000e+00
         vertex 5.000000e+01 1.000000e+01 1.000000e+01
         vertex 5.000000e+01 1.000000e+01 0.000000e+00
      endloop
   endfacet
   facet normal 0.000000e+00 0.000000e+00 1.000000e+00
      outer loop
         vertex 2.283494e+01 2.375000e+01 1.000000e+01
         vertex 2.265077e+01 2.414495e+01 1.000000e+01
         vertex 0.000000e+00 1.000000e+01 1.000000e+01
      endloop
   endfacet
   facet normal 0.000000e+00 0.000000e+00 1.000000e+00
      outer loop
         vertex 2.265077e+01 2.414495e+01 1.000000e+01
         vertex 2.253798e+01 2.456588e+01 1.000000e+01
         vertex 0.000000e+00 1.000000e+01 1.000000e+01
      endloop
   endfacet
   facet normal 0.000000e+00 0.000000e+00 1.000000e+00
      outer loop
         vertex 2.253798e+01 2.456588e+01 1.000000e+01
         vertex 0.000000e+00 4.000000e+01 1.000000e+01
         vertex 0.000000e+00 1.000000e+01 1.000000e+01
      endloop
   endfacet
   facet normal 0.000000e+00 0.000000e+00 1.000000e+00
      outer loop
         vertex 2.308489e+01 2.339303e+01 1.000000e+01
         vertex 2.283494e+01 2.375000e+01 1.000000e+01
         vertex 0.000000e+00 1.000000e+01 1.000000e+01
      endloop
   endfacet
   facet normal 1.000000e+00 0.000000e+00 -0.000000e+00
      outer loop
         vertex 5.000000e+01 4.000000e+01 0.000000e+00
         vertex 5.000000e+01 4.000000e+01 1.000000e+01
         vertex 5.000000e+01 1.000000e+01 1.000000e+01
      endloop
   endfacet
   facet normal 0.000000e+00 0.000000e+00 1.000000e+00
      outer loop
         vertex 5.000000e+01 4.000000e+01 1.000000e+01
         vertex 2.746202e+01 2.543412e+01 1.000000e+01
         vertex 5.000000e+01 1.000000e+01 1.000000e+01
      endloop
   endfacet
   facet normal 0.000000e+00 0.000000e+00 1.000000e+00
      outer loop
         vertex 2.746202e+01 2.543412e+01 1.000000e+01
         vertex 2.750000e+01 2.500000e+01 1.000000e+01
         vertex 5.000000e+01 1.000000e+01 1.000000e+01
      endloop
   endfacet
   facet normal 0.000000e+00 0.000000e+00 1.000000e+00
      outer loop
         vertex 2.750000e+01 2.500000e+01 1.000000e+01
         vertex 2.746202e+01 2.456588e+01 1.000000e+01
         vertex 5.000000e+01 1.000000e+01 1.000000e+01
      endloop
   endfacet
   facet normal 0.000000e+00 0.000000e+00 1.000000e+00
      outer loop
         vertex 2.746202e+01 2.456588e+01 1.000000e+01
         vertex 2.734923e+01 2.414495e+01 1.000000e+01
         vertex 5.000000e+01 1.000000e+01 1.000000e+01
      endloop
   endfacet
   facet normal 0.000000e+00 0.000000e+00 1.000000e+00
      outer loop
         vertex 2.734923e+01 2.414495e+01 1.000000e+01
         vertex 2.716506e+01 2.375000e+01 1.000000e+01
         vertex 5.000000e+01 1.000000e+01 1.000000e+01
      endloop
   endfacet
   facet normal 8.715306e-02 -9.961949e-01 0.000000e+00
      outer loop
         vertex 2.543412e+01 2.253798e+01 1.000000e+01
         vertex 2.500000e+01 2.250000e+01 2.500000e+01
         vertex 2.500000e+01 2.250000e+01 1.000000e+01
      endloop
   endfacet
   facet normal -8.715269e-02 -9.961950e-01 -0.000000e+00
      outer loop
         vertex 2.500000e+01 2.250000e+01 2.500000e+01
         vertex 2.456588e+01 2.253798e+01 2.500000e+01
         vertex 2.500000e+01 2.250000e+01 1.000000e+01
      endloop
   endfacet
   facet normal -8.715269e-02 -9.961950e-01 -0.000000e+00
      outer loop
         vertex 2.456588e+01 2.253798e+01 2.500000e+01
         vertex 2.456588e+01 2.253798e+01 1.000000e+01
         vertex 2.500000e+01 2.250000e+01 1.000000e+01
      endloop
   endfacet
   facet normal 8.715306e-02 -9.961949e-01 0.000000e+00
      outer loop
         vertex 2.543412e+01 2.253798e+01 1.000000e+01
         vertex 2.543412e+01 2.253798e+01 2.500000e+01
         vertex 2.500000e+01 2.250000e+01 2.500000e+01
      endloop
   endfacet
   facet normal 0.000000e+00 0.000000e+00 1.000000e+00
      outer loop
         vertex 2.500000e+01 2.500000e+01 2.500000e+01
         vertex 2.456588e+01 2.253798e+01 2.500000e+01
         vertex 2.500000e+01 2.250000e+01 2.500000e+01
      endloop
   endfacet
   facet normal 0.000000e+00 0.000000e+00 1.000000e+00
      outer loop
         vertex 2.543412e+01 2.253798e+01 2.500000e+01
         vertex 2.500000e+01 2.500000e+01 2.500000e+01
         vertex 2.500000e+01 2.250000e+01 2.500000e+01
      endloop
   endfacet
   facet normal -2.588210e-01 -9.659253e-01 -0.000000e+00
      outer loop
         vertex 2.456588e+01 2.253798e+01 2.500000e+01
         vertex 2.414495e+01 2.265077e+01 2.500000e+01
         vertex 2.456588e+01 2.253798e+01 1.000000e+01
      endloop
   endfacet
   facet normal -2.588210e-01 -9.659253e-01 -0.000000e+00
      outer loop
         vertex 2.414495e+01 2.265077e+01 2.500000e+01
         vertex 2.414495e+01 2.265077e+01 1.000000e+01
         vertex 2.456588e+01 2.253798e+01 1.000000e+01
      endloop
   endfacet
   facet normal 2.588210e-01 -9.659253e-01 0.000000e+00
      outer loop
         vertex 2.585505e+01 2.265077e+01 1.000000e+01
         vertex 2.543412e+01 2.253798e+01 2.500000e+01
         vertex 2.543412e+01 2.253798e+01 1.000000e+01
      endloop
   endfacet
   facet normal 0.000000e+00 0.000000e+00 1.000000e+00
      outer loop
         vertex 2.500000e+01 2.500000e+01 2.500000e+01
         vertex 2.414495e+01 2.265077e+01 2.500000e+01
         vertex 2.456588e+01 2.253798e+01 2.500000e+01
      endloop
   endfacet
   facet normal 2.588210e-01 -9.659253e-01 0.000000e+00
      outer loop
         vertex 2.585505e+01 2.265077e+01 1.000000e+01
         vertex 2.585505e+01 2.265077e+01 2.500000e+01
         vertex 2.543412e+01 2.253798e+01 2.500000e+01
      endloop
   endfacet
   facet normal 0.000000e+00 0.000000e+00 1.000000e+00
      outer loop
         vertex 2.585505e+01 2.265077e+01 2.500000e+01
         vertex 2.500000e+01 2.500000e+01 2.500000e+01
         vertex 2.543412e+01 2.253798e+01 2.500000e+01
      endloop
   endfacet
   facet normal -4.226166e-01 -9.063086e-01 -0.000000e+00
      outer loop
         vertex 2.414495e+01 2.265077e+01 2.500000e+01
         vertex 2.375000e+01 2.283494e+01 2.500000e+01
         vertex 2.414495e+01 2.265077e+01 1.000000e+01
      endloop
   endfacet
   facet normal -4.226166e-01 -9.063086e-01 -0.000000e+00
      outer loop
         vertex 2.375000e+01 2.283494e+01 2.500000e+01
         vertex 2.375000e+01 2.283494e+01 1.000000e+01
         vertex 2.414495e+01 2.265077e+01 1.000000e+01
      endloop
   endfacet
   facet normal 4.226166e-01 -9.063086e-01 0.000000e+00
      outer loop
         vertex 2.625000e+01 2.283494e+01 1.000000e+01
         vertex 2.585505e+01 2.265077e+01 2.500000e+01
         vertex 2.585505e+01 2.265077e+01 1.000000e+01
      endloop
   endfacet
   facet normal 0.000000e+00 0.000000e+00 1.000000e+00
      outer loop
         vertex 2.500000e+01 2.500000e+01 2.500000e+01
         vertex 2.375000e+01 2.283494e+01 2.500000e+01
         vertex 2.414495e+01 2.265077e+01 2.500000e+01
      endloop
   endfacet
   facet normal 4.226166e-01 -9.063086e-01 0.000000e+00
      outer loop
         vertex 2.625000e+01 2.283494e+01 1.000000e+01
         vertex 2.625000e+01 2.283494e+01 2.500000e+01
         vertex 2.585505e+01 2.265077e+01 2.500000e+01
      endloop
   endfacet
   facet normal 0.000000e+00 0.000000e+00 1.000000e+00
      outer loop
         vertex 2.625000e+01 2.283494e+01 2.500000e+01
         vertex 2.500000e+01 2.500000e+01 2.500000e+01
         vertex 2.585505e+01 2.265077e+01 2.500000e+01
      endloop
   endfacet
   facet normal -5.735765e-01 -8.191520e-01 -0.000000e+00
      outer loop
         vertex 2.375000e+01 2.283494e+01 2.500000e+01
         vertex 2.339303e+01 2.308489e+01 2.500000e+01
         vertex 2.375000e+01 2.283494e+01 1.000000e+01
      endloop
   endfacet
   facet normal -5.735765e-01 -8.191520e-01 -0.000000e+00
      outer loop
         vertex 2.339303e+01 2.308489e+01 2.500000e+01
         vertex 2.339303e+01 2.308489e+01 1.000000e+01
         vertex 2.375000e+01 2.283494e+01 1.000000e+01
      endloop
   endfacet
   facet normal 5.735745e-01 -8.191534e-01 0.000000e+00
      outer loop
         vertex 2.660697e+01 2.308489e+01 1.000000e+01
         vertex 2.625000e+01 2.283494e+01 2.500000e+01
         vertex 2.625000e+01 2.283494e+01 1.000000e+01
      endloop
   endfacet
   facet normal 0.000000e+00 0.000000e+00 1.000000e+00
      outer loop
         vertex 2.500000e+01 2.500000e+01 2.500000e+01
         vertex 2.339303e+01 2.308489e+01 2.500000e+01
         vertex 2.375000e+01 2.283494e+01 2.500000e+01
      endloop
   endfacet
   facet normal 5.735745e-01 -8.191534e-01 0.000000e+00
      outer loop
         vertex 2.660697e+01 2.308489e+01 1.000000e+01
         vertex 2.660697e+01 2.308489e+01 2.500000e+01
         vertex 2.625000e+01 2.283494e+01 2.500000e+01
      endloop
   endfacet
   facet normal 0.000000e+00 0.000000e+00 1.000000e+00
      outer loop
         vertex 2.660697e+01 2.308489e+01 2.500000e+01
         vertex 2.500000e+01 2.500000e+01 2.500000e+01
         vertex 2.625000e+01 2.283494e+01 2.500000e+01
      endloop
   endfacet
   facet normal -7.071068e-01 -7.071068e-01 -0.000000e+00
      outer loop
         vertex 2.339303e+01 2.308489e+01 2.500000e+01
         vertex 2.308489e+01 2.339303e+01 2.500000e+01
         vertex 2.339303e+01 2.308489e+01 1.000000e+01
      endloop
   endfacet
   facet normal -7.071068e-01 -7.071068e-01 -0.000000e+00
      outer loop
         vertex 2.308489e+01 2.339303e+01 2.500000e+01
         vertex 2.308489e+01 2.339303e+01 1.000000e+01
         vertex 2.339303e+01 2.308489e+01 1.000000e+01
      endloop
   endfacet
   facet normal 7.071089e-01 -7.071046e-01 0.000000e+00
      outer loop
         vertex 2.691511e+01 2.339303e+01 1.000000e+01
         vertex 2.660697e+01 2.308489e+01 2.500000e+01
         vertex 2.660697e+01 2.308489e+01 1.000000e+01
      endloop
   endfacet
   facet normal 0.000000e+00 0.000000e+00 1.000000e+00
      outer loop
         vertex 2.500000e+01 2.500000e+01 2.500000e+01
         vertex 2.308489e+01 2.339303e+01 2.500000e+01
         vertex 2.339303e+01 2.308489e+01 2.500000e+01
      endloop
   endfacet
   facet normal 7.071089e-01 -7.071046e-01 0.000000e+00
      outer loop
         vertex 2.691511e+01 2.339303e+01 1.000000e+01
         vertex 2.691511e+01 2.339303e+01 2.500000e+01
         vertex 2.660697e+01 2.308489e+01 2.500000e+01
      endloop
   endfacet
   facet normal 0.000000e+00 0.000000e+00 1.000000e+00
      outer loop
         vertex 2.691511e+01 2.339303e+01 2.500000e+01
         vertex 2.500000e+01 2.500000e+01 2.500000e+01
         vertex 2.660697e+01 2.308489e+01 2.500000e+01
      endloop
   endfacet
   facet normal -8.191520e-01 -5.735765e-01 -0.000000e+00
      outer loop
         vertex 2.308489e+01 2.339303e+01 2.500000e+01
         vertex 2.283494e+01 2.375000e+01 2.500000e+01
         vertex 2.308489e+01 2.339303e+01 1.000000e+01
      endloop
   endfacet
   facet normal -8.191520e-01 -5.735765e-01 -0.000000e+00
      outer loop
         vertex 2.283494e+01 2.375000e+01 2.500000e+01
         vertex 2.283494e+01 2.375000e+01 1.000000e+01
         vertex 2.308489e+01 2.339303e+01 1.000000e+01
      endloop
   endfacet
   facet normal 8.191520e-01 -5.735765e-01 0.000000e+00
      outer loop
         vertex 2.716506e+01 2.375000e+01 1.000000e+01
         vertex 2.691511e+01 2.339303e+01 2.500000e+01
         vertex 2.691511e+01 2.339303e+01 1.000000e+01
      endloop
   endfacet
   facet normal 0.000000e+00 0.000000e+00 1.000000e+00
      outer loop
         vertex 2.500000e+01 2.500000e+01 2.500000e+01
         vertex 2.283494e+01 2.375000e+01 2.500000e+01
         vertex 2.308489e+01 2.339303e+01 2.500000e+01
      endloop
   endfacet
   facet normal 8.191520e-01 -5.735765e-01 0.000000e+00
      outer loop
         vertex 2.716506e+01 2.375000e+01 1.000000e+01
         vertex 2.716506e+01 2.375000e+01 2.500000e+01
         vertex 2.691511e+01 2.339303e+01 2.500000e+01
      endloop
   endfacet
   facet normal 0.000000e+00 0.000000e+00 1.000000e+00
      outer loop
         vertex 2.716506e+01 2.375000e+01 2.500000e+01
         vertex 2.500000e+01 2.500000e+01 2.500000e+01
         vertex 2.691511e+01 2.339303e+01 2.500000e+01
      endloop
   endfacet
   facet normal -9.063086e-01 -4.226166e-01 -0.000000e+00
      outer loop
         vertex 2.283494e+01 2.375000e+01 2.500000e+01
         vertex 2.265077e+01 2.414495e+01 2.500000e+01
         vertex 2.283494e+01 2.375000e+01 1.000000e+01
      endloop
   endfacet
   facet normal -9.063086e-01 -4.226166e-01 -0.000000e+00
      outer loop
         vertex 2.265077e+01 2.414495e+01 2.500000e+01
         vertex 2.265077e+01 2.414495e+01 1.000000e+01
         vertex 2.283494e+01 2.375000e+01 1.000000e+01
      endloop
   endfacet
   facet normal 9.063069e-01 -4.226201e-01 0.000000e+00
      outer loop
         vertex 2.734923e+01 2.414495e+01 1.000000e+01
         vertex 2.716506e+01 2.375000e+01 2.500000e+01
         vertex 2.716506e+01 2.375000e+01 1.000000e+01
      endloop
   endfacet
   facet normal 0.000000e+00 0.000000e+00 1.000000e+00
      outer loop
         vertex 2.500000e+01 2.500000e+01 2.500000e+01
         vertex 2.265077e+01 2.414495e+01 2.500000e+01
         vertex 2.283494e+01 2.375000e+01 2.500000e+01
      endloop
   endfacet
   facet normal 9.063069e-01 -4.226201e-01 0.000000e+00
      outer loop
         vertex 2.734923e+01 2.414495e+01 1.000000e+01
         vertex 2.734923e+01 2.414495e+01 2.500000e+01
         vertex 2.716506e+01 2.375000e+01 2.500000e+01
      endloop
   endfacet
   facet normal 0.000000e+00 0.000000e+00 1.000000e+00
      outer loop
         vertex 2.734923e+01 2.414495e+01 2.500000e+01
         vertex 2.500000e+01 2.500000e+01 2.500000e+01
         vertex 2.716506e+01 2.375000e+01 2.500000e+01
      endloop
   endfacet
   facet normal -9.659253e-01 -2.588210e-01 -0.000000e+00
      outer loop
         vertex 2.265077e+01 2.414495e+01 2.500000e+01
         vertex 2.253798e+01 2.456588e+01 2.500000e+01
         vertex 2.265077e+01 2.414495e+01 1.000000e+01
      endloop
   endfacet
   facet normal -9.659253e-01 -2.588210e-01 -0.000000e+00
      outer loop
         vertex 2.253798e+01 2.456588e+01 2.500000e+01
         vertex 2.253798e+01 2.456588e+01 1.000000e+01
         vertex 2.265077e+01 2.414495e+01 1.000000e+01
      endloop
   endfacet
   facet normal 9.659264e-01 -2.588171e-01 0.000000e+00
      outer loop
         vertex 2.746202e+01 2.456588e+01 1.000000e+01
         vertex 2.734923e+01 2.414495e+01 2.500000e+01
         vertex 2.734923e+01 2.414495e+01 1.000000e+01
      endloop
   endfacet
   facet normal 0.000000e+00 0.000000e+00 1.000000e+00
      outer loop
         vertex 2.500000e+01 2.500000e+01 2.500000e+01
         vertex 2.253798e+01 2.456588e+01 2.500000e+01
         vertex 2.265077e+01 2.414495e+01 2.500000e+01
      endloop
   endfacet
   facet normal 9.659264e-01 -2.588171e-01 0.000000e+00
      outer loop
         vertex 2.746202e+01 2.456588e+01 1.000000e+01
         vertex 2.746202e+01 2.456588e+01 2.500000e+01
         vertex 2.734923e+01 2.414495e+01 2.500000e+01
      endloop
   endfacet
   facet normal 0.000000e+00 0.000000e+00 1.000000e+00
      outer loop
         vertex 2.746202e+01 2.456588e+01 2.500000e+01
         vertex 2.500000e+01 2.500000e+01 2.500000e+01
         vertex 2.734923e+01 2.414495e+01 2.500000e+01
      endloop
   endfacet
   facet normal 0.000000e+00 0.000000e+00 1.000000e+00
      outer loop
         vertex 2.250000e+01 2.500000e+01 1.000000e+01
         vertex 0.000000e+00 4.000000e+01 1.000000e+01
         vertex 2.253798e+01 2.456588e+01 1.000000e+01
      endloop
   endfacet
   facet normal -9.961950e-01 -8.715269e-02 -0.000000e+00
      outer loop
         vertex 2.253798e+01 2.456588e+01 2.500000e+01
         vertex 2.250000e+01 2.500000e+01 2.500000e+01
         vertex 2.253798e+01 2.456588e+01 1.000000e+01
      endloop
   endfacet
   facet normal -9.961950e-01 -8.715269e-02 -0.000000e+00
      outer loop
         vertex 2.250000e+01 2.500000e+01 2.500000e+01
         vertex 2.250000e+01 2.500000e+01 1.000000e+01
         vertex 2.253798e+01 2.456588e+01 1.000000e+01
      endloop
   endfacet
   facet normal 9.961946e-01 -8.715693e-02 0.000000e+00
      outer loop
         vertex 2.750000e+01 2.500000e+01 1.000000e+01
         vertex 2.746202e+01 2.456588e+01 2.500000e+01
         vertex 2.746202e+01 2.456588e+01 1.000000e+01
      endloop
   endfacet
   facet normal 0.000000e+00 0.000000e+00 1.000000e+00
      outer loop
         vertex 2.500000e+01 2.500000e+01 2.500000e+01
         vertex 2.250000e+01 2.500000e+01 2.500000e+01
         vertex 2.253798e+01 2.456588e+01 2.500000e+01
      endloop
   endfacet
   facet normal 9.961946e-01 -8.715693e-02 0.000000e+00
      outer loop
         vertex 2.750000e+01 2.500000e+01 1.000000e+01
         vertex 2.750000e+01 2.500000e+01 2.500000e+01
         vertex 2.746202e+01 2.456588e+01 2.500000e+01
      endloop
   endfacet
   facet normal 0.000000e+00 0.000000e+00 1.000000e+00
      outer loop
         vertex 2.750000e+01 2.500000e+01 2.500000e+01
         vertex 2.500000e+01 2.500000e+01 2.500000e+01
         vertex 2.746202e+01 2.456588e+01 2.500000e+01
      endloop
   endfacet
   facet normal 0.000000e+00 0.000000e+00 1.000000e+00
      outer loop
         vertex 2.253798e+01 2.543412e+01 1.000000e+01
         vertex 0.000000e+00 4.000000e+01 1.000000e+01
         vertex 2.250000e+01 2.500000e+01 1.000000e+01
      endloop
   endfacet
   facet normal -9.961949e-01 8.715306e-02 0.000000e+00
      outer loop
         vertex 2.253798e+01 2.543412e+01 2.500000e+01
         vertex 2.253798e+01 2.543412e+01 1.000000e+01
         vertex 2.250000e+01 2.500000e+01 1.000000e+01
      endloop
   endfacet
   facet normal -9.961949e-01 8.715306e-02 0.000000e+00
      outer loop
         vertex 2.250000e+01 2.500000e+01 2.500000e+01
         vertex 2.253798e+01 2.543412e+01 2.500000e+01
         vertex 2.250000e+01 2.500000e+01 1.000000e+01
      endloop
   endfacet
   facet normal 9.961946e-01 8.715730e-02 0.000000e+00
      outer loop
         vertex 2.746202e+01 2.543412e+01 1.000000e+01
         vertex 2.750000e+01 2.500000e+01 2.500000e+01
         vertex 2.750000e+01 2.500000e+01 1.000000e+01
      endloop
   endfacet
   facet normal 0.000000e+00 0.000000e+00 1.000000e+00
      outer loop
         vertex 2.500000e+01 2.500000e+01 2.500000e+01
         vertex 2.253798e+01 2.543412e+01 2.500000e+01
         vertex 2.250000e+01 2.500000e+01 2.500000e+01
      endloop
   endfacet
   facet normal 0.000000e+00 0.000000e+00 1.000000e+00
      outer loop
         vertex 2.750000e+01 2.500000e+01 2.500000e+01
         vertex 2.746202e+01 2.543412e+01 2.500000e+01
         vertex 2.500000e+01 2.500000e+01 2.500000e+01
      endloop
   endfacet
   facet normal 0.000000e+00 0.000000e+00 1.000000e+00
      outer loop
         vertex 2.265077e+01 2.585505e+01 2.500000e+01
         vertex 2.253798e+01 2.543412e+01 2.500000e+01
         vertex 2.500000e+01 2.500000e+01 2.500000e+01
      endloop
   endfacet
   facet normal 0.000000e+00 0.000000e+00 1.000000e+00
      outer loop
         vertex 2.339303e+01 2.691511e+01 2.500000e+01
         vertex 2.308489e+01 2.660697e+01 2.500000e+01
         vertex 2.500000e+01 2.500000e+01 2.500000e+01
      endloop
   endfacet
   facet normal 0.000000e+00 0.000000e+00 1.000000e+00
      outer loop
         vertex 2.308489e+01 2.660697e+01 2.500000e+01
         vertex 2.283494e+01 2.625000e+01 2.500000e+01
         vertex 2.500000e+01 2.500000e+01 2.500000e+01
      endloop
   endfacet
   facet normal 0.000000e+00 0.000000e+00 1.000000e+00
      outer loop
         vertex 2.283494e+01 2.625000e+01 2.500000e+01
         vertex 2.265077e+01 2.585505e+01 2.500000e+01
         vertex 2.500000e+01 2.500000e+01 2.500000e+01
      endloop
   endfacet
   facet normal 0.000000e+00 0.000000e+00 1.000000e+00
      outer loop
         vertex 2.456588e+01 2.746202e+01 2.500000e+01
         vertex 2.414495e+01 2.734923e+01 2.500000e+01
         vertex 2.500000e+01 2.500000e+01 2.500000e+01
      endloop
   endfacet
   facet normal 0.000000e+00 0.000000e+00 1.000000e+00
      outer loop
         vertex 2.414495e+01 2.734923e+01 2.500000e+01
         vertex 2.375000e+01 2.716506e+01 2.500000e+01
         vertex 2.500000e+01 2.500000e+01 2.500000e+01
      endloop
   endfacet
   facet normal 0.000000e+00 0.000000e+00 1.000000e+00
      outer loop
         vertex 2.375000e+01 2.716506e+01 2.500000e+01
         vertex 2.339303e+01 2.691511e+01 2.500000e+01
         vertex 2.500000e+01 2.500000e+01 2.500000e+01
      endloop
   endfacet
   facet normal 0.000000e+00 0.000000e+00 1.000000e+00
      outer loop
         vertex 2.585505e+01 2.734923e+01 2.500000e+01
         vertex 2.543412e+01 2.746202e+01 2.500000e+01
         vertex 2.500000e+01 2.500000e+01 2.500000e+01
      endloop
   endfacet
   facet normal 0.000000e+00 0.000000e+00 1.000000e+00
      outer loop
         vertex 2.543412e+01 2.746202e+01 2.500000e+01
         vertex 2.500000e+01 2.750000e+01 2.500000e+01
         vertex 2.500000e+01 2.500000e+01 2.500000e+01
      endloop
   endfacet
   facet normal 0.000000e+00 0.000000e+00 1.000000e+00
      outer loop
         vertex 2.500000e+01 2.750000e+01 2.500000e+01
         vertex 2.456588e+01 2.746202e+01 2.500000e+01
         vertex 2.500000e+01 2.500000e+01 2.500000e+01
      endloop
   endfacet
   facet normal 0.000000e+00 0.000000e+00 1.000000e+00
      outer loop
         vertex 2.691511e+01 2.660697e+01 2.500000e+01
         vertex 2.660697e+01 2.691511e+01 2.500000e+01
         vertex 2.500000e+01 2.500000e+01 2.500000e+01
      endloop
   endfacet
   facet normal 0.000000e+00 0.000000e+00 1.000000e+00
      outer loop
         vertex 2.660697e+01 2.691511e+01 2.500000e+01
         vertex 2.625000e+01 2.716506e+01 2.500000e+01
         vertex 2.500000e+01 2.500000e+01 2.500000e+01
      endloop
   endfacet
   facet normal 0.000000e+00 0.000000e+00 1.000000e+00
      outer loop
         vertex 2.625000e+01 2.716506e+01 2.500000e+01
         vertex 2.585505e+01 2.734923e+01 2.500000e+01
         vertex 2.500000e+01 2.500000e+01 2.500000e+01
      endloop
   endfacet
   facet normal 0.000000e+00 0.000000e+00 1.000000e+00
      outer loop
         vertex 2.746202e+01 2.543412e+01 2.500000e+01
         vertex 2.734923e+01 2.585505e+01 2.500000e+01
         vertex 2.500000e+01 2.500000e+01 2.500000e+01
      endloop
   endfacet
   facet normal 0.000000e+00 0.000000e+00 1.000000e+00
      outer loop
         vertex 2.734923e+01 2.585505e+01 2.500000e+01
         vertex 2.716506e+01 2.625000e+01 2.500000e+01
         vertex 2.500000e+01 2.500000e+01 2.500000e+01
      endloop
   endfacet
   facet normal 0.000000e+00 0.000000e+00 1.000000e+00
      outer loop
         vertex 2.716506e+01 2.625000e+01 2.500000e+01
         vertex 2.691511e+01 2.660697e+01 2.500000e+01
         vertex 2.500000e+01 2.500000e+01 2.500000e+01
      endloop
   endfacet
   facet normal 9.961946e-01 8.715730e-02 -0.000000e+00
      outer loop
         vertex 2.746202e+01 2.543412e+01 1.000000e+01
         vertex 2.746202e+01 2.543412e+01 2.500000e+01
         vertex 2.750000e+01 2.500000e+01 2.500000e+01
      endloop
   endfacet
   facet normal 0.000000e+00 0.000000e+00 1.000000e+00
      outer loop
         vertex 2.265077e+01 2.585505e+01 1.000000e+01
         vertex 0.000000e+00 4.000000e+01 1.000000e+01
         vertex 2.253798e+01 2.543412e+01 1.000000e+01
      endloop
   endfacet
   facet normal -9.659253e-01 2.588210e-01 0.000000e+00
      outer loop
         vertex 2.253798e+01 2.543412e+01 2.500000e+01
         vertex 2.265077e+01 2.585505e+01 2.500000e+01
         vertex 2.253798e+01 2.543412e+01 1.000000e+01
      endloop
   endfacet
   facet normal -9.659253e-01 2.588210e-01 0.000000e+00
      outer loop
         vertex 2.265077e+01 2.585505e+01 2.500000e+01
         vertex 2.265077e+01 2.585505e+01 1.000000e+01
         vertex 2.253798e+01 2.543412e+01 1.000000e+01
      endloop
   endfacet
   facet normal 0.000000e+00 0.000000e+00 1.000000e+00
      outer loop
         vertex 5.000000e+01 4.000000e+01 1.000000e+01
         vertex 2.734923e+01 2.585505e+01 1.000000e+01
         vertex 2.746202e+01 2.543412e+01 1.000000e+01
      endloop
   endfacet
   facet normal 9.659264e-01 2.588171e-01 0.000000e+00
      outer loop
         vertex 2.734923e+01 2.585505e+01 1.000000e+01
         vertex 2.746202e+01 2.543412e+01 2.500000e+01
         vertex 2.746202e+01 2.543412e+01 1.000000e+01
      endloop
   endfacet
   facet normal 9.659264e-01 2.588171e-01 -0.000000e+00
      outer loop
         vertex 2.734923e+01 2.585505e+01 1.000000e+01
         vertex 2.734923e+01 2.585505e+01 2.500000e+01
         vertex 2.746202e+01 2.543412e+01 2.500000e+01
      endloop
   endfacet
   facet normal 0.000000e+00 0.000000e+00 1.000000e+00
      outer loop
         vertex 2.283494e+01 2.625000e+01 1.000000e+01
         vertex 0.000000e+00 4.000000e+01 1.000000e+01
         vertex 2.265077e+01 2.585505e+01 1.000000e+01
      endloop
   endfacet
   facet normal -9.063086e-01 4.226166e-01 0.000000e+00
      outer loop
         vertex 2.265077e+01 2.585505e+01 2.500000e+01
         vertex 2.283494e+01 2.625000e+01 2.500000e+01
         vertex 2.265077e+01 2.585505e+01 1.000000e+01
      endloop
   endfacet
   facet normal -9.063086e-01 4.226166e-01 0.000000e+00
      outer loop
         vertex 2.283494e+01 2.625000e+01 2.500000e+01
         vertex 2.283494e+01 2.625000e+01 1.000000e+01
         vertex 2.265077e+01 2.585505e+01 1.000000e+01
      endloop
   endfacet
   facet normal 0.000000e+00 0.000000e+00 1.000000e+00
      outer loop
         vertex 5.000000e+01 4.000000e+01 1.000000e+01
         vertex 2.716506e+01 2.625000e+01 1.000000e+01
         vertex 2.734923e+01 2.585505e+01 1.000000e+01
      endloop
   endfacet
   facet normal 9.063069e-01 4.226201e-01 0.000000e+00
      outer loop
         vertex 2.716506e+01 2.625000e+01 1.000000e+01
         vertex 2.734923e+01 2.585505e+01 2.500000e+01
         vertex 2.734923e+01 2.585505e+01 1.000000e+01
      endloop
   endfacet
   facet normal 9.063069e-01 4.226201e-01 -0.000000e+00
      outer loop
         vertex 2.716506e+01 2.625000e+01 1.000000e+01
         vertex 2.716506e+01 2.625000e+01 2.500000e+01
         vertex 2.734923e+01 2.585505e+01 2.500000e+01
      endloop
   endfacet
   facet normal 0.000000e+00 0.000000e+00 1.000000e+00
      outer loop
         vertex 1.231166e-01 4.156435e+01 1.000000e+01
         vertex 0.000000e+00 4.000000e+01 1.000000e+01
         vertex 2.283494e+01 2.625000e+01 1.000000e+01
      endloop
   endfacet
   facet normal 0.000000e+00 0.000000e+00 1.000000e+00
      outer loop
         vertex 2.308489e+01 2.660697e+01 1.000000e+01
         vertex 1.231166e-01 4.156435e+01 1.000000e+01
         vertex 2.283494e+01 2.625000e+01 1.000000e+01
      endloop
   endfacet
   facet normal -8.191534e-01 5.735745e-01 0.000000e+00
      outer loop
         vertex 2.283494e+01 2.625000e+01 2.500000e+01
         vertex 2.308489e+01 2.660697e+01 2.500000e+01
         vertex 2.283494e+01 2.625000e+01 1.000000e+01
      endloop
   endfacet
   facet normal -8.191534e-01 5.735745e-01 0.000000e+00
      outer loop
         vertex 2.308489e+01 2.660697e+01 2.500000e+01
         vertex 2.308489e+01 2.660697e+01 1.000000e+01
         vertex 2.283494e+01 2.625000e+01 1.000000e+01
      endloop
   endfacet
   facet normal 0.000000e+00 0.000000e+00 1.000000e+00
      outer loop
         vertex 4.987688e+01 4.156435e+01 1.000000e+01
         vertex 2.691511e+01 2.660697e+01 1.000000e+01
         vertex 2.716506e+01 2.625000e+01 1.000000e+01
      endloop
   endfacet
   facet normal 0.000000e+00 0.000000e+00 1.000000e+00
      outer loop
         vertex 5.000000e+01 4.000000e+01 1.000000e+01
         vertex 4.987688e+01 4.156435e+01 1.000000e+01
         vertex 2.716506e+01 2.625000e+01 1.000000e+01
      endloop
   endfacet
   facet normal 8.191534e-01 5.735745e-01 0.000000e+00
      outer loop
         vertex 2.691511e+01 2.660697e+01 1.000000e+01
         vertex 2.716506e+01 2.625000e+01 2.500000e+01
         vertex 2.716506e+01 2.625000e+01 1.000000e+01
      endloop
   endfacet
   facet normal 8.191534e-01 5.735745e-01 -0.000000e+00
      outer loop
         vertex 2.691511e+01 2.660697e+01 1.000000e+01
         vertex 2.691511e+01 2.660697e+01 2.500000e+01
         vertex 2.716506e+01 2.625000e+01 2.500000e+01
      endloop
   endfacet
   facet normal 0.000000e+00 0.000000e+00 1.000000e+00
      outer loop
         vertex 4.894348e-01 4.309017e+01 1.000000e+01
         vertex 1.231166e-01 4.156435e+01 1.000000e+01
         vertex 2.308489e+01 2.660697e+01 1.000000e+01
      endloop
   endfacet
   facet normal 0.000000e+00 0.000000e+00 1.000000e+00
      outer loop
         vertex 2.339303e+01 2.691511e+01 1.000000e+01
         vertex 5.460095e+00 4.891007e+01 1.000000e+01
         vertex 2.308489e+01 2.660697e+01 1.000000e+01
      endloop
   endfacet
   facet normal 0.000000e+00 0.000000e+00 1.000000e+00
      outer loop
         vertex 5.460095e+00 4.891007e+01 1.000000e+01
         vertex 4.122147e+00 4.809017e+01 1.000000e+01
         vertex 2.308489e+01 2.660697e+01 1.000000e+01
      endloop
   endfacet
   facet normal 0.000000e+00 0.000000e+00 1.000000e+00
      outer loop
         vertex 4.122147e+00 4.809017e+01 1.000000e+01
         vertex 2.928932e+00 4.707107e+01 1.000000e+01
         vertex 2.308489e+01 2.660697e+01 1.000000e+01
      endloop
   endfacet
   facet normal 0.000000e+00 0.000000e+00 1.000000e+00
      outer loop
         vertex 2.928932e+00 4.707107e+01 1.000000e+01
         vertex 1.909830e+00 4.587785e+01 1.000000e+01
         vertex 2.308489e+01 2.660697e+01 1.000000e+01
      endloop
   endfacet
   facet normal 0.000000e+00 0.000000e+00 1.000000e+00
      outer loop
         vertex 1.909830e+00 4.587785e+01 1.000000e+01
         vertex 1.089935e+00 4.453991e+01 1.000000e+01
         vertex 2.308489e+01 2.660697e+01 1.000000e+01
      endloop
   endfacet
   facet normal 0.000000e+00 0.000000e+00 1.000000e+00
      outer loop
         vertex 1.089935e+00 4.453991e+01 1.000000e+01
         vertex 4.894348e-01 4.309017e+01 1.000000e+01
         vertex 2.308489e+01 2.660697e+01 1.000000e+01
      endloop
   endfacet
   facet normal -7.071046e-01 7.071089e-01 0.000000e+00
      outer loop
         vertex 2.308489e+01 2.660697e+01 2.500000e+01
         vertex 2.339303e+01 2.691511e+01 2.500000e+01
         vertex 2.308489e+01 2.660697e+01 1.000000e+01
      endloop
   endfacet
   facet normal -7.071046e-01 7.071089e-01 0.000000e+00
      outer loop
         vertex 2.339303e+01 2.691511e+01 2.500000e+01
         vertex 2.339303e+01 2.691511e+01 1.000000e+01
         vertex 2.308489e+01 2.660697e+01 1.000000e+01
      endloop
   endfacet
   facet normal 0.000000e+00 0.000000e+00 1.000000e+00
      outer loop
         vertex 4.951056e+01 4.309017e+01 1.000000e+01
         vertex 4.891007e+01 4.453991e+01 1.000000e+01
         vertex 2.691511e+01 2.660697e+01 1.000000e+01
      endloop
   endfacet
   facet normal 0.000000e+00 0.000000e+00 1.000000e+00
      outer loop
         vertex 4.587785e+01 4.809017e+01 1.000000e+01
         vertex 2.660697e+01 2.691511e+01 1.000000e+01
         vertex 2.691511e+01 2.660697e+01 1.000000e+01
      endloop
   endfacet
   facet normal 0.000000e+00 0.000000e+00 1.000000e+00
      outer loop
         vertex 4.987688e+01 4.156435e+01 1.000000e+01
         vertex 4.951056e+01 4.309017e+01 1.000000e+01
         vertex 2.691511e+01 2.660697e+01 1.000000e+01
      endloop
   endfacet
   facet normal 0.000000e+00 0.000000e+00 1.000000e+00
      outer loop
         vertex 4.891007e+01 4.453991e+01 1.000000e+01
         vertex 4.809017e+01 4.587785e+01 1.000000e+01
         vertex 2.691511e+01 2.660697e+01 1.000000e+01
      endloop
   endfacet
   facet normal 0.000000e+00 0.000000e+00 1.000000e+00
      outer loop
         vertex 4.809017e+01 4.587785e+01 1.000000e+01
         vertex 4.707107e+01 4.707107e+01 1.000000e+01
         vertex 2.691511e+01 2.660697e+01 1.000000e+01
      endloop
   endfacet
   facet normal 0.000000e+00 0.000000e+00 1.000000e+00
      outer loop
         vertex 4.707107e+01 4.707107e+01 1.000000e+01
         vertex 4.587785e+01 4.809017e+01 1.000000e+01
         vertex 2.691511e+01 2.660697e+01 1.000000e+01
      endloop
   endfacet
   facet normal 7.071068e-01 7.071068e-01 0.000000e+00
      outer loop
         vertex 2.660697e+01 2.691511e+01 1.000000e+01
         vertex 2.691511e+01 2.660697e+01 2.500000e+01
         vertex 2.691511e+01 2.660697e+01 1.000000e+01
      endloop
   endfacet
   facet normal 7.071068e-01 7.071068e-01 -0.000000e+00
      outer loop
         vertex 2.660697e+01 2.691511e+01 1.000000e+01
         vertex 2.660697e+01 2.691511e+01 2.500000e+01
         vertex 2.691511e+01 2.660697e+01 2.500000e+01
      endloop
   endfacet
   facet normal 0.000000e+00 0.000000e+00 1.000000e+00
      outer loop
         vertex 6.909830e+00 4.951056e+01 1.000000e+01
         vertex 5.460095e+00 4.891007e+01 1.000000e+01
         vertex 2.339303e+01 2.691511e+01 1.000000e+01
      endloop
   endfacet
   facet normal 0.000000e+00 0.000000e+00 1.000000e+00
      outer loop
         vertex 8.435655e+00 4.987688e+01 1.000000e+01
         vertex 6.909830e+00 4.951056e+01 1.000000e+01
         vertex 2.339303e+01 2.691511e+01 1.000000e+01
      endloop
   endfacet
   facet normal 0.000000e+00 0.000000e+00 1.000000e+00
      outer loop
         vertex 2.375000e+01 2.716506e+01 1.000000e+01
         vertex 8.435655e+00 4.987688e+01 1.000000e+01
         vertex 2.339303e+01 2.691511e+01 1.000000e+01
      endloop
   endfacet
   facet normal -5.735765e-01 8.191520e-01 0.000000e+00
      outer loop
         vertex 2.339303e+01 2.691511e+01 2.500000e+01
         vertex 2.375000e+01 2.716506e+01 2.500000e+01
         vertex 2.339303e+01 2.691511e+01 1.000000e+01
      endloop
   endfacet
   facet normal -5.735765e-01 8.191520e-01 0.000000e+00
      outer loop
         vertex 2.375000e+01 2.716506e+01 2.500000e+01
         vertex 2.375000e+01 2.716506e+01 1.000000e+01
         vertex 2.339303e+01 2.691511e+01 1.000000e+01
      endloop
   endfacet
   facet normal 0.000000e+00 0.000000e+00 1.000000e+00
      outer loop
         vertex 4.587785e+01 4.809017e+01 1.000000e+01
         vertex 4.453991e+01 4.891007e+01 1.000000e+01
         vertex 2.660697e+01 2.691511e+01 1.000000e+01
      endloop
   endfacet
   facet normal 0.000000e+00 0.000000e+00 1.000000e+00
      outer loop
         vertex 4.156435e+01 4.987688e+01 1.000000e+01
         vertex 2.625000e+01 2.716506e+01 1.000000e+01
         vertex 2.660697e+01 2.691511e+01 1.000000e+01
      endloop
   endfacet
   facet normal 0.000000e+00 0.000000e+00 1.000000e+00
      outer loop
         vertex 4.309017e+01 4.951056e+01 1.000000e+01
         vertex 4.156435e+01 4.987688e+01 1.000000e+01
         vertex 2.660697e+01 2.691511e+01 1.000000e+01
      endloop
   endfacet
   facet normal 0.000000e+00 0.000000e+00 1.000000e+00
      outer loop
         vertex 4.453991e+01 4.891007e+01 1.000000e+01
         vertex 4.309017e+01 4.951056e+01 1.000000e+01
         vertex 2.660697e+01 2.691511e+01 1.000000e+01
      endloop
   endfacet
   facet normal 5.735745e-01 8.191534e-01 0.000000e+00
      outer loop
         vertex 2.625000e+01 2.716506e+01 1.000000e+01
         vertex 2.660697e+01 2.691511e+01 2.500000e+01
         vertex 2.660697e+01 2.691511e+01 1.000000e+01
      endloop
   endfacet
   facet normal 5.735745e-01 8.191534e-01 -0.000000e+00
      outer loop
         vertex 2.625000e+01 2.716506e+01 1.000000e+01
         vertex 2.625000e+01 2.716506e+01 2.500000e+01
         vertex 2.660697e+01 2.691511e+01 2.500000e+01
      endloop
   endfacet
   facet normal 0.000000e+00 0.000000e+00 1.000000e+00
      outer loop
         vertex 1.000000e+01 5.000000e+01 1.000000e+01
         vertex 8.435655e+00 4.987688e+01 1.000000e+01
         vertex 2.375000e+01 2.716506e+01 1.000000e+01
      endloop
   endfacet
   facet normal 0.000000e+00 0.000000e+00 1.000000e+00
      outer loop
         vertex 2.414495e+01 2.734923e+01 1.000000e+01
         vertex 1.000000e+01 5.000000e+01 1.000000e+01
         vertex 2.375000e+01 2.716506e+01 1.000000e+01
      endloop
   endfacet
   facet normal -4.226201e-01 9.063069e-01 0.000000e+00
      outer loop
         vertex 2.375000e+01 2.716506e+01 2.500000e+01
         vertex 2.414495e+01 2.734923e+01 2.500000e+01
         vertex 2.375000e+01 2.716506e+01 1.000000e+01
      endloop
   endfacet
   facet normal -4.226201e-01 9.063069e-01 0.000000e+00
      outer loop
         vertex 2.414495e+01 2.734923e+01 2.500000e+01
         vertex 2.414495e+01 2.734923e+01 1.000000e+01
         vertex 2.375000e+01 2.716506e+01 1.000000e+01
      endloop
   endfacet
   facet normal 0.000000e+00 0.000000e+00 1.000000e+00
      outer loop
         vertex 4.000000e+01 5.000000e+01 1.000000e+01
         vertex 2.585505e+01 2.734923e+01 1.000000e+01
         vertex 2.625000e+01 2.716506e+01 1.000000e+01
      endloop
   endfacet
   facet normal 0.000000e+00 0.000000e+00 1.000000e+00
      outer loop
         vertex 4.156435e+01 4.987688e+01 1.000000e+01
         vertex 4.000000e+01 5.000000e+01 1.000000e+01
         vertex 2.625000e+01 2.716506e+01 1.000000e+01
      endloop
   endfacet
   facet normal 4.226201e-01 9.063069e-01 0.000000e+00
      outer loop
         vertex 2.585505e+01 2.734923e+01 1.000000e+01
         vertex 2.625000e+01 2.716506e+01 2.500000e+01
         vertex 2.625000e+01 2.716506e+01 1.000000e+01
      endloop
   endfacet
   facet normal 4.226201e-01 9.063069e-01 -0.000000e+00
      outer loop
         vertex 2.585505e+01 2.734923e+01 1.000000e+01
         vertex 2.585505e+01 2.734923e+01 2.500000e+01
         vertex 2.625000e+01 2.716506e+01 2.500000e+01
      endloop
   endfacet
   facet normal 0.000000e+00 0.000000e+00 1.000000e+00
      outer loop
         vertex 2.456588e+01 2.746202e+01 1.000000e+01
         vertex 1.000000e+01 5.000000e+01 1.000000e+01
         vertex 2.414495e+01 2.734923e+01 1.000000e+01
      endloop
   endfacet
   facet normal -2.588171e-01 9.659264e-01 0.000000e+00
      outer loop
         vertex 2.414495e+01 2.734923e+01 2.500000e+01
         vertex 2.456588e+01 2.746202e+01 2.500000e+01
         vertex 2.414495e+01 2.734923e+01 1.000000e+01
      endloop
   endfacet
   facet normal -2.588171e-01 9.659264e-01 0.000000e+00
      outer loop
         vertex 2.456588e+01 2.746202e+01 2.500000e+01
         vertex 2.456588e+01 2.746202e+01 1.000000e+01
         vertex 2.414495e+01 2.734923e+01 1.000000e+01
      endloop
   endfacet
   facet normal 0.000000e+00 0.000000e+00 1.000000e+00
      outer loop
         vertex 4.000000e+01 5.000000e+01 1.000000e+01
         vertex 2.543412e+01 2.746202e+01 1.000000e+01
         vertex 2.585505e+01 2.734923e+01 1.000000e+01
      endloop
   endfacet
   facet normal 2.588171e-01 9.659264e-01 0.000000e+00
      outer loop
         vertex 2.543412e+01 2.746202e+01 1.000000e+01
         vertex 2.585505e+01 2.734923e+01 2.500000e+01
         vertex 2.585505e+01 2.734923e+01 1.000000e+01
      endloop
   endfacet
   facet normal 2.588171e-01 9.659264e-01 -0.000000e+00
      outer loop
         vertex 2.543412e+01 2.746202e+01 1.000000e+01
         vertex 2.543412e+01 2.746202e+01 2.500000e+01
         vertex 2.585505e+01 2.734923e+01 2.500000e+01
      endloop
   endfacet
   facet normal 0.000000e+00 0.000000e+00 1.000000e+00
      outer loop
         vertex 4.000000e+01 5.000000e+01 1.000000e+01
         vertex 1.000000e+01 5.000000e+01 1.000000e+01
         vertex 2.456588e+01 2.746202e+01 1.000000e+01
      endloop
   endfacet
   facet normal 0.000000e+00 -0.000000e+00 1.000000e+00
      outer loop
         vertex 2.500000e+01 2.750000e+01 1.000000e+01
         vertex 4.000000e+01 5.000000e+01 1.000000e+01
         vertex 2.456588e+01 2.746202e+01 1.000000e+01
      endloop
   endfacet
   facet normal -8.715693e-02 9.961946e-01 0.000000e+00
      outer loop
         vertex 2.456588e+01 2.746202e+01 2.500000e+01
         vertex 2.500000e+01 2.750000e+01 2.500000e+01
         vertex 2.456588e+01 2.746202e+01 1.000000e+01
      endloop
   endfacet
   facet normal -8.715693e-02 9.961946e-01 0.000000e+00
      outer loop
         vertex 2.500000e+01 2.750000e+01 2.500000e+01
         vertex 2.500000e+01 2.750000e+01 1.000000e+01
         vertex 2.456588e+01 2.746202e+01 1.000000e+01
      endloop
   endfacet
   facet normal 0.000000e+00 0.000000e+00 1.000000e+00
      outer loop
         vertex 4.000000e+01 5.000000e+01 1.000000e+01
         vertex 2.500000e+01 2.750000e+01 1.000000e+01
         vertex 2.543412e+01 2.746202e+01 1.000000e+01
      endloop
   endfacet
   facet normal 8.715730e-02 9.961946e-01 0.000000e+00
      outer loop
         vertex 2.500000e+01 2.750000e+01 1.000000e+01
         vertex 2.543412e+01 2.746202e+01 2.500000e+01
         vertex 2.543412e+01 2.746202e+01 1.000000e+01
      endloop
   endfacet
   facet normal 8.715730e-02 9.961946e-01 -0.000000e+00
      outer loop
         vertex 2.500000e+01 2.750000e+01 1.000000e+01
         vertex 2.500000e+01 2.750000e+01 2.500000e+01
         vertex 2.543412e+01 2.746202e+01 2.500000e+01
      endloop
   endfacet
   facet normal 0.000000e+00 -0.000000e+00 -1.000000e+00
      outer loop
         vertex 8.435655e+00 4.987688e+01 0.000000e+00
         vertex 1.000000e+01 5.000000e+01 0.000000e+00
         vertex 0.000000e+00 4.000000e+01 0.000000e+00
      endloop
   endfacet
   facet normal 0.000000e+00 -0.000000e+00 -1.000000e+00
      outer loop
         vertex 6.909830e+00 4.951056e+01 0.000000e+00
         vertex 8.435655e+00 4.987688e+01 0.000000e+00
         vertex 0.000000e+00 4.000000e+01 0.000000e+00
      endloop
   endfacet
   facet normal 0.000000e+00 -0.000000e+00 -1.000000e+00
      outer loop
         vertex 1.231166e-01 4.156435e+01 0.000000e+00
         vertex 6.909830e+00 4.951056e+01 0.000000e+00
         vertex 0.000000e+00 4.000000e+01 0.000000e+00
      endloop
   endfacet
   facet normal -9.969173e-01 7.845902e-02 0.000000e+00
      outer loop
         vertex 1.231166e-01 4.156435e+01 1.000000e+01
         vertex 1.231166e-01 4.156435e+01 0.000000e+00
         vertex 0.000000e+00 4.000000e+01 0.000000e+00
      endloop
   endfacet
   facet normal -9.969173e-01 7.845902e-02 0.000000e+00
      outer loop
         vertex 0.000000e+00 4.000000e+01 1.000000e+01
         vertex 1.231166e-01 4.156435e+01 1.000000e+01
         vertex 0.000000e+00 4.000000e+01 0.000000e+00
      endloop
   endfacet
   facet normal 0.000000e+00 0.000000e+00 -1.000000e+00
      outer loop
         vertex 4.000000e+01 5.000000e+01 0.000000e+00
         vertex 4.156435e+01 4.987688e+01 0.000000e+00
         vertex 5.000000e+01 4.000000e+01 0.000000e+00
      endloop
   endfacet
   facet normal 0.000000e+00 0.000000e+00 -1.000000e+00
      outer loop
         vertex 4.156435e+01 4.987688e+01 0.000000e+00
         vertex 4.309017e+01 4.951056e+01 0.000000e+00
         vertex 5.000000e+01 4.000000e+01 0.000000e+00
      endloop
   endfacet
   facet normal 0.000000e+00 0.000000e+00 -1.000000e+00
      outer loop
         vertex 4.309017e+01 4.951056e+01 0.000000e+00
         vertex 4.987688e+01 4.156435e+01 0.000000e+00
         vertex 5.000000e+01 4.000000e+01 0.000000e+00
      endloop
   endfacet
   facet normal 9.969173e-01 7.845935e-02 0.000000e+00
      outer loop
         vertex 4.987688e+01 4.156435e+01 0.000000e+00
         vertex 5.000000e+01 4.000000e+01 1.000000e+01
         vertex 5.000000e+01 4.000000e+01 0.000000e+00
      endloop
   endfacet
   facet normal 9.969173e-01 7.845935e-02 -0.000000e+00
      outer loop
         vertex 4.987688e+01 4.156435e+01 0.000000e+00
         vertex 4.987688e+01 4.156435e+01 1.000000e+01
         vertex 5.000000e+01 4.000000e+01 1.000000e+01
      endloop
   endfacet
   facet normal 0.000000e+00 -0.000000e+00 -1.000000e+00
      outer loop
         vertex 4.894348e-01 4.309017e+01 0.000000e+00
         vertex 6.909830e+00 4.951056e+01 0.000000e+00
         vertex 1.231166e-01 4.156435e+01 0.000000e+00
      endloop
   endfacet
   facet normal -9.723698e-01 2.334457e-01 0.000000e+00
      outer loop
         vertex 4.894348e-01 4.309017e+01 1.000000e+01
         vertex 4.894348e-01 4.309017e+01 0.000000e+00
         vertex 1.231166e-01 4.156435e+01 0.000000e+00
      endloop
   endfacet
   facet normal -9.723698e-01 2.334457e-01 0.000000e+00
      outer loop
         vertex 1.231166e-01 4.156435e+01 1.000000e+01
         vertex 4.894348e-01 4.309017e+01 1.000000e+01
         vertex 1.231166e-01 4.156435e+01 0.000000e+00
      endloop
   endfacet
   facet normal 0.000000e+00 0.000000e+00 -1.000000e+00
      outer loop
         vertex 4.309017e+01 4.951056e+01 0.000000e+00
         vertex 4.951056e+01 4.309017e+01 0.000000e+00
         vertex 4.987688e+01 4.156435e+01 0.000000e+00
      endloop
   endfacet
   facet normal 9.723697e-01 2.334461e-01 0.000000e+00
      outer loop
         vertex 4.951056e+01 4.309017e+01 0.000000e+00
         vertex 4.987688e+01 4.156435e+01 1.000000e+01
         vertex 4.987688e+01 4.156435e+01 0.000000e+00
      endloop
   endfacet
   facet normal 9.723697e-01 2.334461e-01 -0.000000e+00
      outer loop
         vertex 4.951056e+01 4.309017e+01 0.000000e+00
         vertex 4.951056e+01 4.309017e+01 1.000000e+01
         vertex 4.987688e+01 4.156435e+01 1.000000e+01
      endloop
   endfacet
   facet normal 0.000000e+00 -0.000000e+00 -1.000000e+00
      outer loop
         vertex 1.089935e+00 4.453991e+01 0.000000e+00
         vertex 6.909830e+00 4.951056e+01 0.000000e+00
         vertex 4.894348e-01 4.309017e+01 0.000000e+00
      endloop
   endfacet
   facet normal -9.238798e-01 3.826828e-01 0.000000e+00
      outer loop
         vertex 1.089935e+00 4.453991e+01 1.000000e+01
         vertex 1.089935e+00 4.453991e+01 0.000000e+00
         vertex 4.894348e-01 4.309017e+01 0.000000e+00
      endloop
   endfacet
   facet normal -9.238798e-01 3.826828e-01 0.000000e+00
      outer loop
         vertex 4.894348e-01 4.309017e+01 1.000000e+01
         vertex 1.089935e+00 4.453991e+01 1.000000e+01
         vertex 4.894348e-01 4.309017e+01 0.000000e+00
      endloop
   endfacet
   facet normal 0.000000e+00 0.000000e+00 -1.000000e+00
      outer loop
         vertex 4.309017e+01 4.951056e+01 0.000000e+00
         vertex 4.453991e+01 4.891007e+01 0.000000e+00
         vertex 4.951056e+01 4.309017e+01 0.000000e+00
      endloop
   endfacet
   facet normal 0.000000e+00 0.000000e+00 -1.000000e+00
      outer loop
         vertex 4.453991e+01 4.891007e+01 0.000000e+00
         vertex 4.587785e+01 4.809017e+01 0.000000e+00
         vertex 4.951056e+01 4.309017e+01 0.000000e+00
      endloop
   endfacet
   facet normal 0.000000e+00 0.000000e+00 -1.000000e+00
      outer loop
         vertex 4.587785e+01 4.809017e+01 0.000000e+00
         vertex 4.707107e+01 4.707107e+01 0.000000e+00
         vertex 4.951056e+01 4.309017e+01 0.000000e+00
      endloop
   endfacet
   facet normal 0.000000e+00 0.000000e+00 -1.000000e+00
      outer loop
         vertex 4.707107e+01 4.707107e+01 0.000000e+00
         vertex 4.809017e+01 4.587785e+01 0.000000e+00
         vertex 4.951056e+01 4.309017e+01 0.000000e+00
      endloop
   endfacet
   facet normal 0.000000e+00 0.000000e+00 -1.000000e+00
      outer loop
         vertex 4.809017e+01 4.587785e+01 0.000000e+00
         vertex 4.891007e+01 4.453991e+01 0.000000e+00
         vertex 4.951056e+01 4.309017e+01 0.000000e+00
      endloop
   endfacet
   facet normal 9.238802e-01 3.826819e-01 0.000000e+00
      outer loop
         vertex 4.891007e+01 4.453991e+01 0.000000e+00
         vertex 4.951056e+01 4.309017e+01 1.000000e+01
         vertex 4.951056e+01 4.309017e+01 0.000000e+00
      endloop
   endfacet
   facet normal 9.238802e-01 3.826819e-01 -0.000000e+00
      outer loop
         vertex 4.891007e+01 4.453991e+01 0.000000e+00
         vertex 4.891007e+01 4.453991e+01 1.000000e+01
         vertex 4.951056e+01 4.309017e+01 1.000000e+01
      endloop
   endfacet
   facet normal 0.000000e+00 -0.000000e+00 -1.000000e+00
      outer loop
         vertex 1.909830e+00 4.587785e+01 0.000000e+00
         vertex 6.909830e+00 4.951056e+01 0.000000e+00
         vertex 1.089935e+00 4.453991e+01 0.000000e+00
      endloop
   endfacet
   facet normal -8.526398e-01 5.224992e-01 0.000000e+00
      outer loop
         vertex 1.909830e+00 4.587785e+01 1.000000e+01
         vertex 1.909830e+00 4.587785e+01 0.000000e+00
         vertex 1.089935e+00 4.453991e+01 0.000000e+00
      endloop
   endfacet
   facet normal -8.526398e-01 5.224992e-01 0.000000e+00
      outer loop
         vertex 1.089935e+00 4.453991e+01 1.000000e+01
         vertex 1.909830e+00 4.587785e+01 1.000000e+01
         vertex 1.089935e+00 4.453991e+01 0.000000e+00
      endloop
   endfacet
   facet normal 8.526398e-01 5.224992e-01 0.000000e+00
      outer loop
         vertex 4.809017e+01 4.587785e+01 0.000000e+00
         vertex 4.891007e+01 4.453991e+01 1.000000e+01
         vertex 4.891007e+01 4.453991e+01 0.000000e+00
      endloop
   endfacet
   facet normal 8.526398e-01 5.224992e-01 -0.000000e+00
      outer loop
         vertex 4.809017e+01 4.587785e+01 0.000000e+00
         vertex 4.809017e+01 4.587785e+01 1.000000e+01
         vertex 4.891007e+01 4.453991e+01 1.000000e+01
      endloop
   endfacet
   facet normal 0.000000e+00 -0.000000e+00 -1.000000e+00
      outer loop
         vertex 2.928932e+00 4.707107e+01 0.000000e+00
         vertex 6.909830e+00 4.951056e+01 0.000000e+00
         vertex 1.909830e+00 4.587785e+01 0.000000e+00
      endloop
   endfacet
   facet normal -7.604067e-01 6.494472e-01 0.000000e+00
      outer loop
         vertex 2.928932e+00 4.707107e+01 1.000000e+01
         vertex 2.928932e+00 4.707107e+01 0.000000e+00
         vertex 1.909830e+00 4.587785e+01 0.000000e+00
      endloop
   endfacet
   facet normal -7.604067e-01 6.494472e-01 0.000000e+00
      outer loop
         vertex 1.909830e+00 4.587785e+01 1.000000e+01
         vertex 2.928932e+00 4.707107e+01 1.000000e+01
         vertex 1.909830e+00 4.587785e+01 0.000000e+00
      endloop
   endfacet
   facet normal 7.604068e-01 6.494470e-01 0.000000e+00
      outer loop
         vertex 4.707107e+01 4.707107e+01 0.000000e+00
         vertex 4.809017e+01 4.587785e+01 1.000000e+01
         vertex 4.809017e+01 4.587785e+01 0.000000e+00
      endloop
   endfacet
   facet normal 7.604068e-01 6.494470e-01 -0.000000e+00
      outer loop
         vertex 4.707107e+01 4.707107e+01 0.000000e+00
         vertex 4.707107e+01 4.707107e+01 1.000000e+01
         vertex 4.809017e+01 4.587785e+01 1.000000e+01
      endloop
   endfacet
   facet normal 0.000000e+00 -0.000000e+00 -1.000000e+00
      outer loop
         vertex 4.122147e+00 4.809017e+01 0.000000e+00
         vertex 6.909830e+00 4.951056e+01 0.000000e+00
         vertex 2.928932e+00 4.707107e+01 0.000000e+00
      endloop
   endfacet
   facet normal -6.494479e-01 7.604061e-01 0.000000e+00
      outer loop
         vertex 4.122147e+00 4.809017e+01 1.000000e+01
         vertex 4.122147e+00 4.809017e+01 0.000000e+00
         vertex 2.928932e+00 4.707107e+01 0.000000e+00
      endloop
   endfacet
   facet normal -6.494479e-01 7.604061e-01 0.000000e+00
      outer loop
         vertex 2.928932e+00 4.707107e+01 1.000000e+01
         vertex 4.122147e+00 4.809017e+01 1.000000e+01
         vertex 2.928932e+00 4.707107e+01 0.000000e+00
      endloop
   endfacet
   facet normal 6.494470e-01 7.604068e-01 0.000000e+00
      outer loop
         vertex 4.587785e+01 4.809017e+01 0.000000e+00
         vertex 4.707107e+01 4.707107e+01 1.000000e+01
         vertex 4.707107e+01 4.707107e+01 0.000000e+00
      endloop
   endfacet
   facet normal 6.494470e-01 7.604068e-01 -0.000000e+00
      outer loop
         vertex 4.587785e+01 4.809017e+01 0.000000e+00
         vertex 4.587785e+01 4.809017e+01 1.000000e+01
         vertex 4.707107e+01 4.707107e+01 1.000000e+01
      endloop
   endfacet
   facet normal 0.000000e+00 -0.000000e+00 -1.000000e+00
      outer loop
         vertex 5.460095e+00 4.891007e+01 0.000000e+00
         vertex 6.909830e+00 4.951056e+01 0.000000e+00
         vertex 4.122147e+00 4.809017e+01 0.000000e+00
      endloop
   endfacet
   facet normal -5.224985e-01 8.526402e-01 0.000000e+00
      outer loop
         vertex 5.460095e+00 4.891007e+01 1.000000e+01
         vertex 5.460095e+00 4.891007e+01 0.000000e+00
         vertex 4.122147e+00 4.809017e+01 0.000000e+00
      endloop
   endfacet
   facet normal -5.224985e-01 8.526402e-01 0.000000e+00
      outer loop
         vertex 4.122147e+00 4.809017e+01 1.000000e+01
         vertex 5.460095e+00 4.891007e+01 1.000000e+01
         vertex 4.122147e+00 4.809017e+01 0.000000e+00
      endloop
   endfacet
   facet normal 5.224992e-01 8.526398e-01 0.000000e+00
      outer loop
         vertex 4.453991e+01 4.891007e+01 0.000000e+00
         vertex 4.587785e+01 4.809017e+01 1.000000e+01
         vertex 4.587785e+01 4.809017e+01 0.000000e+00
      endloop
   endfacet
   facet normal 5.224992e-01 8.526398e-01 -0.000000e+00
      outer loop
         vertex 4.453991e+01 4.891007e+01 0.000000e+00
         vertex 4.453991e+01 4.891007e+01 1.000000e+01
         vertex 4.587785e+01 4.809017e+01 1.000000e+01
      endloop
   endfacet
   facet normal -3.826825e-01 9.238799e-01 0.000000e+00
      outer loop
         vertex 6.909830e+00 4.951056e+01 1.000000e+01
         vertex 6.909830e+00 4.951056e+01 0.000000e+00
         vertex 5.460095e+00 4.891007e+01 0.000000e+00
      endloop
   endfacet
   facet normal -3.826825e-01 9.238799e-01 0.000000e+00
      outer loop
         vertex 5.460095e+00 4.891007e+01 1.000000e+01
         vertex 6.909830e+00 4.951056e+01 1.000000e+01
         vertex 5.460095e+00 4.891007e+01 0.000000e+00
      endloop
   endfacet
   facet normal 3.826819e-01 9.238802e-01 0.000000e+00
      outer loop
         vertex 4.309017e+01 4.951056e+01 0.000000e+00
         vertex 4.453991e+01 4.891007e+01 1.000000e+01
         vertex 4.453991e+01 4.891007e+01 0.000000e+00
      endloop
   endfacet
   facet normal 3.826819e-01 9.238802e-01 -0.000000e+00
      outer loop
         vertex 4.309017e+01 4.951056e+01 0.000000e+00
         vertex 4.309017e+01 4.951056e+01 1.000000e+01
         vertex 4.453991e+01 4.891007e+01 1.000000e+01
      endloop
   endfacet
   facet normal -2.334458e-01 9.723698e-01 0.000000e+00
      outer loop
         vertex 8.435655e+00 4.987688e+01 1.000000e+01
         vertex 8.435655e+00 4.987688e+01 0.000000e+00
         vertex 6.909830e+00 4.951056e+01 0.000000e+00
      endloop
   endfacet
   facet normal -2.334458e-01 9.723698e-01 0.000000e+00
      outer loop
         vertex 6.909830e+00 4.951056e+01 1.000000e+01
         vertex 8.435655e+00 4.987688e+01 1.000000e+01
         vertex 6.909830e+00 4.951056e+01 0.000000e+00
      endloop
   endfacet
   facet normal 2.334461e-01 9.723697e-01 0.000000e+00
      outer loop
         vertex 4.156435e+01 4.987688e+01 0.000000e+00
         vertex 4.309017e+01 4.951056e+01 1.000000e+01
         vertex 4.309017e+01 4.951056e+01 0.000000e+00
      endloop
   endfacet
   facet normal 2.334461e-01 9.723697e-01 -0.000000e+00
      outer loop
         vertex 4.156435e+01 4.987688e+01 0.000000e+00
         vertex 4.156435e+01 4.987688e+01 1.000000e+01
         vertex 4.309017e+01 4.951056e+01 1.000000e+01
      endloop
   endfacet
   facet normal -7.845944e-02 9.969173e-01 0.000000e+00
      outer loop
         vertex 1.000000e+01 5.000000e+01 1.000000e+01
         vertex 1.000000e+01 5.000000e+01 0.000000e+00
         vertex 8.435655e+00 4.987688e+01 0.000000e+00
      endloop
   endfacet
   facet normal -7.845944e-02 9.969173e-01 0.000000e+00
      outer loop
         vertex 8.435655e+00 4.987688e+01 1.000000e+01
         vertex 1.000000e+01 5.000000e+01 1.000000e+01
         vertex 8.435655e+00 4.987688e+01 0.000000e+00
      endloop
   endfacet
   facet normal 7.845935e-02 9.969173e-01 0.000000e+00
      outer loop
         vertex 4.000000e+01 5.000000e+01 0.000000e+00
         vertex 4.156435e+01 4.987688e+01 1.000000e+01
         vertex 4.156435e+01 4.987688e+01 0.000000e+00
      endloop
   endfacet
   facet normal 7.845935e-02 9.969173e-01 -0.000000e+00
      outer loop
         vertex 4.000000e+01 5.000000e+01 0.000000e+00
         vertex 4.000000e+01 5.000000e+01 1.000000e+01
         vertex 4.156435e+01 4.987688e+01 1.000000e+01
      endloop
   endfacet
   facet normal -0.000000e+00 1.000000e+00 0.000000e+00
      outer loop
         vertex 1.000000e+01 5.000000e+01 1.000000e+01
         vertex 4.000000e+01 5.000000e+01 1.000000e+01
         vertex 1.000000e+01 5.000000e+01 0.000000e+00
      endloop
   endfacet
   facet normal 0.000000e+00 1.000000e+00 0.000000e+00
      outer loop
         vertex 4.000000e+01 5.000000e+01 1.000000e+01
         vertex 4.000000e+01 5.000000e+01 0.000000e+00
         vertex 1.000000e+01 5.000000e+01 0.000000e+00
      endloop
   endfacet
endsolid